<svg xmlns="http://www.w3.org/2000/svg" width="42" height="42" viewBox="0 0 42 42"><g transform="translate(-304 -4664)"><rect width="42" height="42" rx="8" transform="translate(304 4664)" fill="#eafff6"/><g transform="translate(-231.05 3786.905)"><path d="M543.05,905.753a.793.793,0,0,1,.807-.352c.229.02.46,0,.707,0v-.313q0-6.318,0-12.635a2.049,2.049,0,0,1,1.5-2.111,2.725,2.725,0,0,1,.71-.085c1.844-.006,3.689,0,5.536,0,.125-.483.231-.963.372-1.433a11.24,11.24,0,0,1,2.63-4.491.551.551,0,0,1,.914.01,11.334,11.334,0,0,1,2.925,5.72,1,1,0,0,0,.03.12.673.673,0,0,0,.03.074h5.534a2.067,2.067,0,0,1,2.219,2.213q0,6.318,0,12.635v.3c.3,0,.6,0,.894,0a.559.559,0,0,1,.619.633,3.571,3.571,0,0,1-3.055,3.443c-.026,0-.049.03-.073.045h-19.27a1.422,1.422,0,0,0-.192-.077,3.547,3.547,0,0,1-2.76-2.76,1.426,1.426,0,0,0-.077-.192Zm10.843-9.842c.228.6.452,1.2.69,1.8a.26.26,0,0,0,.2.119c.653.008,1.306.009,1.96,0a.281.281,0,0,0,.208-.141c.236-.589.458-1.183.684-1.776l.3-1.117a10.961,10.961,0,0,0,.049-4.947l-.336-1.095c-.115-.3-.216-.6-.348-.892a10.147,10.147,0,0,0-1.582-2.437c-.416.635-.841,1.22-1.2,1.846a15.048,15.048,0,0,0-.655,1.484l-.333,1.094a10.928,10.928,0,0,0,.051,4.946Zm8.929,9.486h3.048v-.2q0-6.376,0-12.754a.98.98,0,0,0-1.089-1.089h-5.453a13.611,13.611,0,0,1-.694,5.027.33.33,0,0,0,.1.406c.4.39.8.794,1.191,1.2a.531.531,0,0,1,.125.615.463.463,0,0,1-.483.318.868.868,0,0,1-.451-.21c-.335-.3-.646-.635-.988-.976l-.318.792a.57.57,0,0,1-.6.412l-.487.012H554.8a2.615,2.615,0,0,0-.319-.009.748.748,0,0,1-.786-.375l-.289-.867c-.355.366-.662.689-.976,1.005a.554.554,0,1,1-.769-.775c.38-.381.757-.764,1.147-1.135a.31.31,0,0,0,.089-.384,13.531,13.531,0,0,1-.709-4.655c0-.128,0-.256,0-.389-.046,0-.079-.006-.111-.006q-2.7,0-5.409,0a1.128,1.128,0,0,0-.246.024.991.991,0,0,0-.768,1.09V905.4h3.1c.058,0,.115.008.173.008h13.721C562.707,905.405,562.765,905.4,562.822,905.4Zm4.476,1.113H544.21c.028.094.047.173.073.25a2.477,2.477,0,0,0,2.417,1.674q9.062,0,18.123,0a3.27,3.27,0,0,0,.567-.05A2.424,2.424,0,0,0,567.3,906.51Z" fill="#020202"/><path d="M562.822,905.4a1.762,1.762,0,0,0-2.349-1.823.547.547,0,0,1-.793-.389,1.7,1.7,0,0,0-1.6-1.224,1.322,1.322,0,0,1-1.349-1.431c-.008-.53,0-1.059,0-1.589l.487-.012a.57.57,0,0,0,.6-.412q.012.891.026,1.781c.008.5-.1.532.546.6a2.621,2.621,0,0,1,1.994,1.24.452.452,0,0,0,.494.259,2.836,2.836,0,0,1,3.057,2.856c0,.049,0,.1,0,.149Z" fill="#00ec85"/><path d="M554.8,898.941c-.007.62.008,1.241-.029,1.859a1.261,1.261,0,0,1-1.1,1.14,4.313,4.313,0,0,0-1.02.251,1.565,1.565,0,0,0-.816,1.013.531.531,0,0,1-.756.379,1.726,1.726,0,0,0-2.329,1.814h-1.1a2.786,2.786,0,0,1,2.154-2.934,7.943,7.943,0,0,1,1.005-.064.323.323,0,0,0,.228-.11,2.767,2.767,0,0,1,2.333-1.414c.242-.012.326-.118.322-.359-.011-.653,0-1.306,0-1.959a.748.748,0,0,0,.786.375A2.615,2.615,0,0,1,554.8,898.941Z" fill="#00ec85"/><path d="M557.636,895.911h-3.743l-.3-1.118h4.349Z" fill="#00ec85"/><path d="M553.871,888.753h3.781l.336,1.095h-4.45Z" fill="#00ec85"/><path d="M555.779,892.915a.544.544,0,1,1,.521-.549A.532.532,0,0,1,555.779,892.915Z" fill="#070707"/></g></g></svg>