<svg xmlns="http://www.w3.org/2000/svg" width="55.242" height="55.26" viewBox="0 0 55.242 55.26"><g transform="translate(-559.198 -804.189)"><path d="M587.912,809.236q7.63,0,15.258,0a4.461,4.461,0,0,1,4.688,4.714q.006,5.634,0,11.268v.571c1.688,0,3.336.024,4.984-.01a1.518,1.518,0,0,1,1.6.873v27.084l-.863.754H573.116a1.089,1.089,0,0,0-.139-.147,1.189,1.189,0,0,1-.559-1.382,1.208,1.208,0,0,1,1.291-.843c1.545,0,3.092,0,4.639,0h.563v-4.206h-.561q-7.172,0-14.346,0a4.5,4.5,0,0,1-4.805-4.821V814.016a4.482,4.482,0,0,1,4.787-4.781l1.781,0,0,2.372h-1.781a2.136,2.136,0,0,0-2.409,2.423v24.383c0,.179.012.359.018.537v2.376c-.006.611-.016,1.222-.018,1.832a2.132,2.132,0,0,0,2.35,2.374q13.96,0,27.919,0c.155,0,.309-.016.464-.024v-6.558q.009-5.821.018-11.645c0-1.11.411-1.517,1.531-1.517h11.633V814.075a2.155,2.155,0,0,0-2.473-2.467h-15.1Zm6.8,42.85h17.329v-8.724c-.145.1-.244.169-.345.234a6.112,6.112,0,0,1-8.4-1.616,6.263,6.263,0,0,1-1.1-3.762c.012-1.146,0-2.292,0-3.417a.479.479,0,0,0-.1-.04c-.629-.006-1.257-.008-1.886-.018a1.189,1.189,0,1,1-.024-2.37q3.18-.012,6.364,0a1.192,1.192,0,1,1-.026,2.37c-.645.006-1.287,0-1.955,0,0,.821-.014,1.592,0,2.364a11.987,11.987,0,0,0,.119,2.253,3.677,3.677,0,0,0,4.165,2.834,3.724,3.724,0,0,0,3.2-3.688c.016-3.362,0-6.723,0-10.084a1.312,1.312,0,0,0-.034-.226H594.708Zm-2.417.018v-4.163h-4.359V852.1Zm-10.943-4.182v4.165h4.145v-4.165Z" transform="translate(0 4.96)" fill="#fff"/><path d="M586.619,832.428l.863-.754v.754Z" transform="translate(26.958 27.022)" fill="#f0f0f0"/><path d="M562.508,816.568c0-.791,0-1.581,0-2.372q.006-4.26.014-8.517c0-1.051.419-1.47,1.467-1.472.934,0,1.872-.05,2.8.022a2.166,2.166,0,0,1,1.186.486c.791.7,1.509,1.481,2.318,2.295.668-.676,1.339-1.295,1.94-1.977a2.437,2.437,0,0,1,2.039-.843c2.965.046,5.93.016,8.894.018,1.041,0,1.47.428,1.472,1.472q.009,4.26.014,8.517c0,.791,0,1.581,0,2.372l-.034,1.779a1.37,1.37,0,0,0-1.5-.873c-.286.02-.573-.008-.859-.014V806.581c-2.707,0-5.329,0-7.95.012a.829.829,0,0,0-.492.26c-.849.829-1.678,1.676-2.523,2.509a1.251,1.251,0,0,1-2.013,0c-.831-.821-1.65-1.652-2.483-2.471a.935.935,0,0,0-.478-.3c-.458-.042-.922-.014-1.428-.014V817.46c-.3.006-.609.034-.912.014a1.35,1.35,0,0,0-1.448.867Z" transform="translate(3.254 0)" fill="#00ec85"/><path d="M591.119,826.595H560.4v-2.376h30.715Z" transform="translate(1.186 19.692)" fill="#00ec85"/><path d="M584.619,811.767a40.331,40.331,0,0,1-.1,4.412,4.319,4.319,0,0,1-4.284,3.671c-.7.014-1.4,0-2.181,0v.575c0,2.768.018,5.537-.008,8.307a4.469,4.469,0,0,1-8.345,2.146,4.6,4.6,0,0,1-.6-2.37c.008-2.715,0-5.43,0-8.145v-.512c-.686,0-1.329,0-1.973,0a4.479,4.479,0,0,1-4.607-4.587c-.006-1.168.008-2.336.014-3.506a1.35,1.35,0,0,1,1.448-.867c.3.02.609-.008.912-.014,2.626.006,5.249.018,7.875.016q4.745,0,9.491-.016c.286.006.573.034.859.014A1.37,1.37,0,0,1,584.619,811.767Zm-2.362,1.535H564.894c0,.762-.028,1.5.006,2.229a2.048,2.048,0,0,0,2.015,1.94q6.657.024,13.317,0a2.049,2.049,0,0,0,2.019-1.989C582.28,814.766,582.257,814.048,582.257,813.3Zm-10.784,6.57v.23q0,4.26,0,8.518a2.154,2.154,0,0,0,.048.48,2.1,2.1,0,0,0,4.151-.438c.018-2.191.006-4.385.006-6.576v-2.213Z" transform="translate(3.263 6.579)" fill="#fff"/></g></svg>