<svg xmlns="http://www.w3.org/2000/svg" width="50.907" height="50.961" viewBox="0 0 50.907 50.961"><g transform="translate(-701.167 -892.128)"><path d="M735.261,943.089c-.639-.114-1.279-.229-1.919-.339a31.3,31.3,0,0,1-9.85-3.533A46.121,46.121,0,0,1,704.457,919.9a27.8,27.8,0,0,1-3.18-10.526,17.174,17.174,0,0,1,1.266-9.1A14.394,14.394,0,0,1,711,892.542a6.363,6.363,0,0,1,6.981,1.655c1.22,1.218,2.464,2.415,3.629,3.684a7.057,7.057,0,0,1,1.921,5.844,7.943,7.943,0,0,1-2.71,4.941,5.637,5.637,0,0,0-1.666,2.713,5.494,5.494,0,0,0,1.026,5.013,44.817,44.817,0,0,0,7.614,7.614,5.638,5.638,0,0,0,7.413-.333c.5-.461.955-.971,1.476-1.4a7.2,7.2,0,0,1,9.582.277c1.443,1.316,2.806,2.726,4.152,4.144a5.985,5.985,0,0,1,1.559,3.373.7.7,0,0,0,.1.195v1.393c-.04.1-.089.193-.119.294a13.884,13.884,0,0,1-11.794,10.853l-1.616.3Zm1.7-2.167a13.445,13.445,0,0,0,11.879-6.628,5.079,5.079,0,0,0-.812-6.966c-1.088-1.021-2.1-2.119-3.179-3.152a5.141,5.141,0,0,0-6.491-.431,17.563,17.563,0,0,0-1.6,1.483,7.809,7.809,0,0,1-10.114.641,42.924,42.924,0,0,1-8.338-8.352,7.539,7.539,0,0,1-1.077-7.3,9.87,9.87,0,0,1,2.648-3.727,5.149,5.149,0,0,0-.021-7.323q-1.556-1.572-3.13-3.13c-1.924-1.91-4.005-2.29-6.364-.937-4.238,2.43-6.716,6.014-6.944,11.022a23.967,23.967,0,0,0,1.671,9.862,37.929,37.929,0,0,0,7.5,11.787,44.175,44.175,0,0,0,14.08,10.594A26.138,26.138,0,0,0,736.96,940.922Z" transform="translate(0 0)" fill="#fff"/><path d="M723.689,895.909c-1.051.125-2.1.229-3.149.38-.886.126-1.475-.181-1.559-.878a1.05,1.05,0,0,1,.939-1.24,18.593,18.593,0,0,1,2.406-.332,19.1,19.1,0,0,1,15.689,6.266,19.34,19.34,0,0,1,4.765,16.8c-.151.777-.653,1.147-1.317,1.009a1.09,1.09,0,0,1-.818-1.405,17.277,17.277,0,0,0-9.329-18.752A18.1,18.1,0,0,0,723.689,895.909Z" transform="translate(6.624 0.624)" fill="#00ec85"/><path d="M734.948,908.815a1.133,1.133,0,0,1-.926,1.209,1.147,1.147,0,0,1-1.235-.849,20.09,20.09,0,0,0-.912-2.56A10.675,10.675,0,0,0,724.6,900.8c-.128-.033-.257-.062-.383-.1a1.109,1.109,0,0,1-.79-1.354,1.088,1.088,0,0,1,1.321-.756,12.976,12.976,0,0,1,8.7,6.295,12.236,12.236,0,0,1,1.428,3.632Z" transform="translate(8.269 2.391)" fill="#00ec85"/></g></svg>