<svg xmlns="http://www.w3.org/2000/svg" width="24.877" height="24.872" viewBox="0 0 24.877 24.872"><g transform="translate(-705.128 -775.259)"><path d="M705.128,810.96a.72.72,0,0,1,.769-.357,3.5,3.5,0,0,1,3.263,3.443,2.454,2.454,0,0,0,2.4,2.463c.816.031,1.636.039,2.452,0a3.728,3.728,0,0,1,3.546,1.632c.155-.187.286-.37.44-.53a3.509,3.509,0,0,1,2.655-1.1c.907,0,1.814-.018,2.72,0a2.543,2.543,0,0,0,2.611-2.542,3.466,3.466,0,0,1,3.389-3.383.548.548,0,0,1,.631.617c0,1,.009,2.008,0,3.011a6.485,6.485,0,0,1-5.6,6.26c-.119.015-.238.034-.375.055,0,.276-.015.551,0,.823a.669.669,0,0,1-.393.72H711.444a.779.779,0,0,1-.344-.789c.019-.248,0-.5,0-.759l-.13-.014a6.5,6.5,0,0,1-5.626-4.774c-.086-.314-.147-.634-.22-.951Zm11.9,10.047c0-.374.008-.722,0-1.07a2.385,2.385,0,0,0-2.235-2.324c-1.018-.045-2.039-.022-3.058-.024a3.546,3.546,0,0,1-3.647-3.547A2.364,2.364,0,0,0,706.7,811.9a4.285,4.285,0,0,0-.5-.182c0,.83-.013,1.615,0,2.4a5.429,5.429,0,0,0,5.292,5.363c.516.014.68.191.68.7,0,.273,0,.546,0,.829Zm11.918-9.274c-.07.013-.11.016-.147.027a2.435,2.435,0,0,0-1.76,2.373,3.514,3.514,0,0,1-3.25,3.432c-1.033.051-2.071.02-3.107.022a2.64,2.64,0,0,0-1.372.333,2.8,2.8,0,0,0-1.175,3.1h4.823v-.639c0-.783.08-.865.869-.907a5.436,5.436,0,0,0,4.873-3.82A16.58,16.58,0,0,0,728.946,811.733Z" transform="translate(0 -21.953)" fill="#fff"/><path d="M720.009,789.461a7.647,7.647,0,0,1-2.928-5.213,7.779,7.779,0,0,1,2.44-6.818A7.658,7.658,0,0,1,724.2,775.3a7.9,7.9,0,0,1,8.542,6.465,7.707,7.707,0,0,1-2.851,7.7l-.936-.622a6.358,6.358,0,0,0,1.87-2.085c-.121-.016-.24-.022-.355-.05a2.034,2.034,0,0,1-1.5-1.315.447.447,0,0,0-.234-.228,2.048,2.048,0,0,1-1.336-2.186,2.018,2.018,0,0,1,2.02-1.742c.688-.005,1.375,0,2.106,0a6.8,6.8,0,0,0-1.9-3.057,6.731,6.731,0,0,0-4.133-1.823c0,.322,0,.611,0,.9a2.017,2.017,0,0,1-2.01,2.085.947.947,0,1,0,0,1.895,2.015,2.015,0,0,1,.275,4.011,2.569,2.569,0,0,1-.411.021l-2.308,0a.19.19,0,0,0-.046.012,2.1,2.1,0,0,1-1.939,1.477,6.778,6.778,0,0,0,1.9,2.08Zm4.4-13.1c-.136.008-.242.005-.345.022a6.935,6.935,0,0,0-5.615,9.086c.027.081.092.192.159.209a1.056,1.056,0,0,0,1.359-.912c.061-.422.231-.568.665-.568.939,0,1.878,0,2.818,0a.947.947,0,0,0,.965-1.017.958.958,0,0,0-.986-.877,2.016,2.016,0,0,1,.013-4.031.935.935,0,0,0,.962-.817C724.434,777.1,724.408,776.745,724.408,776.361Zm7.355,5.941c-.785,0-1.537,0-2.288,0a.949.949,0,1,0-.078,1.895.533.533,0,0,1,.523.478,2.029,2.029,0,0,0,.111.468,1.135,1.135,0,0,0,1.291.532.27.27,0,0,0,.117-.165c.088-.294.18-.587.244-.887A7.327,7.327,0,0,0,731.763,782.3Z" transform="translate(-7.385)" fill="#00ec85"/><path d="M723.647,811.413l.939-.623a2.764,2.764,0,0,1,3.5,3.789,2.751,2.751,0,0,1-5.194-.872,2.7,2.7,0,0,1,.665-2.177C723.593,811.493,723.619,811.452,723.647,811.413Zm1.978.253a1.686,1.686,0,1,0,1.69,1.678A1.694,1.694,0,0,0,725.625,811.667Z" transform="translate(-11.023 -21.952)" fill="#fff"/><path d="M742.306,810.791l.936.622A3.024,3.024,0,0,1,744,813.03a2.756,2.756,0,1,1-3.619-2.288A2.814,2.814,0,0,1,742.306,810.791Zm-1.042.875a1.686,1.686,0,1,0,1.691,1.678A1.694,1.694,0,0,0,741.264,811.666Z" transform="translate(-20.736 -21.952)" fill="#fff"/></g></svg>