<svg xmlns="http://www.w3.org/2000/svg" width="58.191" height="52.206" viewBox="0 0 58.191 52.206"><g transform="translate(-630.513 -914.721)"><path d="M688.586,959.823c-.087.279-.183.552-.256.831a8.385,8.385,0,0,1-7.654,6.229c-1.473.068-2.954.037-4.43.037q-8.837,0-17.674,0a9.2,9.2,0,0,1-6.649-2.067,14.02,14.02,0,0,1-4.593,1.785,13.725,13.725,0,0,1-14.99-7.142c-2.76-5.249-2.227-10.312,1.25-15.08a.817.817,0,0,0,.11-.994c-.575-1.146-1.1-2.32-1.636-3.486a3.543,3.543,0,0,1,1.8-5.015c.27-.13.541-.259.71-.338-.113-1.2-.29-2.34-.307-3.481a8.528,8.528,0,0,1,1.076-4.128,1.26,1.26,0,0,1,1.743-.673,1.274,1.274,0,0,1,.482,1.8,7.231,7.231,0,0,0-.529,5.32c.262-.115.518-.225.774-.341a3.545,3.545,0,0,1,4.824,1.752c.605,1.258,1.169,2.54,1.783,3.793a.734.734,0,0,0,.524.363,14.151,14.151,0,0,1,7.837,2.644c.07.051.152.093.3.177.133-1.29.3-2.517.375-3.754a16.06,16.06,0,0,1,3.551-9.617,15.187,15.187,0,0,1,5.525-4.258c.152-.071.3-.144.459-.217-.732-2.45-1.414-4.889-2.2-7.291a1.4,1.4,0,0,1,1.473-1.957c4.4.039,8.789.014,13.185.017,1.276,0,1.8.693,1.434,1.912-.724,2.425-1.453,4.847-2.191,7.313.256.121.51.234.755.36a15.077,15.077,0,0,1,8.6,12.258c.467,4.021.814,8.06,1.259,12.087A12.026,12.026,0,0,0,687.093,954a12.714,12.714,0,0,1,1.493,3.554Zm-34.553,3.455a6.163,6.163,0,0,0,3.7,1.141q11.105,0,22.216,0a6.067,6.067,0,0,0,4.624-1.929,5.463,5.463,0,0,0,.532-6.9,16.209,16.209,0,0,1-2.32-6.922c-.42-3.974-.8-7.947-1.233-11.918a12.773,12.773,0,0,0-25.235-1.076c-.482,2.675-.628,5.41-.907,8.119a1.028,1.028,0,0,0,.228.6c3.422,4.678,3.8,9.656,1.428,14.878A12.471,12.471,0,0,1,654.032,963.279Zm-9.425,1.138a11.453,11.453,0,1,0,.006-22.906,11.453,11.453,0,0,0-.006,22.906Zm29.473-47.149H663.6l1.788,5.959a15.949,15.949,0,0,1,6.914,0Zm-32.143,21.985c-.529-1.132-1.025-2.211-1.538-3.281a1.075,1.075,0,0,0-1.625-.577q-1.952.9-3.892,1.816a1.074,1.074,0,0,0-.577,1.625q.672,1.466,1.363,2.92a2.67,2.67,0,0,0,.2.316A14.527,14.527,0,0,1,641.937,939.252Z" transform="translate(0.118 0)" fill="#fff"/><path d="M635.827,921.5a1.272,1.272,0,0,1-1.309-.943,1.15,1.15,0,0,1,.527-1.324c1.492-.729,3-1.439,4.52-2.106a1.159,1.159,0,0,1,1.49.693,1.226,1.226,0,0,1-.676,1.647c-1.36.653-2.737,1.281-4.111,1.912A2.331,2.331,0,0,1,635.827,921.5Z" transform="translate(7.194 4.223)" fill="#00ec85"/><path d="M633.093,920.385a4.848,4.848,0,0,1,.132-.493q.722-2,1.456-3.993a1.256,1.256,0,1,1,2.357.831q-.748,2.108-1.543,4.2a1.192,1.192,0,0,1-1.445.8A1.239,1.239,0,0,1,633.093,920.385Z" transform="translate(4.685 0.376)" fill="#00ec85"/><path d="M631.78,915.072a1.187,1.187,0,0,1,1.118.735c.648,1.366,1.3,2.731,1.915,4.109a1.237,1.237,0,0,1-.552,1.693,1.222,1.222,0,0,1-1.7-.642c-.662-1.377-1.315-2.763-1.929-4.162A1.213,1.213,0,0,1,631.78,915.072Z" transform="translate(0 0.637)" fill="#00ec85"/><path d="M647.186,941.089a13.483,13.483,0,0,1-2.056-.231,7.691,7.691,0,0,1-1.858-.806,1.233,1.233,0,1,1,1.259-2.12,4.246,4.246,0,0,0,2.492.591c1.1-.031,2.2,0,3.295-.014a2.189,2.189,0,1,0,.031-4.376c-1.4-.034-2.8,0-4.2-.065a4.645,4.645,0,0,1-4.337-4.9,4.7,4.7,0,0,1,4.52-4.452c.262-.006.521,0,.845,0,0-.729-.023-1.388,0-2.044a1.239,1.239,0,0,1,1.7-1.236,1.144,1.144,0,0,1,.788,1.135c.008.679,0,1.357,0,2.106.259.017.479.037.7.042a5.378,5.378,0,0,1,3.672,1.56,1.275,1.275,0,0,1,.217,1.861,1.212,1.212,0,0,1-1.9-.011,3.269,3.269,0,0,0-2.419-.924c-1.135.028-2.273-.006-3.408.014a2.187,2.187,0,1,0-.034,4.373c1.4.04,2.8,0,4.2.065a4.685,4.685,0,0,1-.127,9.358,2.674,2.674,0,0,1-.4.006c-.408-.051-.527.132-.507.521.025.529.017,1.062,0,1.591a1.237,1.237,0,0,1-2.473.07C647.149,942.5,647.186,941.8,647.186,941.089Z" transform="translate(20.519 12.016)" fill="#00ec85"/></g></svg>