<svg xmlns="http://www.w3.org/2000/svg" width="55.242" height="55.254" viewBox="0 0 55.242 55.254"><g transform="translate(-521.92 -805.652)"><path d="M521.92,831.844a1.592,1.592,0,0,1,1.855-.824v-2.232a4.508,4.508,0,0,1,4.728-4.807,38.73,38.73,0,0,0,12.1-2.051c3.7-1.242,6.368-.456,8.849,2.558.018.022.059.028-.1-.15.582-.475,1.152-.966,1.75-1.42a7,7,0,0,1,6.813-1.162,40.267,40.267,0,0,0,12.939,2.235,4.713,4.713,0,0,1,3.344,1.4,3.338,3.338,0,0,1,1.107,2.59c-.026.986-.006,1.972-.006,2.94.061.036.089.067.119.069,1.473.055,1.74.331,1.74,1.808q0,3.049,0,6.1c0,1.095-.4,1.5-1.489,1.5q-10.086,0-20.172-.008a.623.623,0,0,0-.733.535A5.243,5.243,0,0,1,550.4,844.8c-.038.006-.071.063-.1.095h-1.728c-.172-.071-.341-.158-.519-.212a5.335,5.335,0,0,1-3.736-3.762c-.131-.447-.307-.54-.732-.54-6.706.012-13.411,0-20.117.02a1.454,1.454,0,0,1-1.546-.9Zm2.394,6.176h.647q9.437,0,18.875,0a2.51,2.51,0,0,1,2.705,2.111,3.078,3.078,0,0,0,5.992.038,2.527,2.527,0,0,1,2.784-2.15q9.437,0,18.872,0h.566v-4.645H556.073a7.829,7.829,0,0,0-5.572,2.176,1.218,1.218,0,0,1-1.932-.01,7.715,7.715,0,0,0-5.467-2.164q-9.167-.012-18.335,0c-.154,0-.305.016-.453.024Zm26.5-5.693c2.693-1.327,3.936-1.337,6.718-1.329,4.923.012,9.849,0,14.773,0h.624c0-1.022.04-1.992-.022-2.954a1.772,1.772,0,0,0-.459-1.016,2.3,2.3,0,0,0-1.758-.677,31.9,31.9,0,0,1-7.069-.665c-2.251-.505-4.473-1.15-6.7-1.764a4.75,4.75,0,0,0-6.071,3.82A34.976,34.976,0,0,0,550.814,832.327Zm-2.461.1c0-1.271,0-2.453,0-3.635a4.862,4.862,0,0,0-6.576-4.75c-1.536.489-3.083.948-4.649,1.323a37.786,37.786,0,0,1-8.758,1,2,2,0,0,0-2.156,1.77,27.66,27.66,0,0,0-.02,2.871h.6c5.192,0,10.387.016,15.581-.01A11.2,11.2,0,0,1,548.353,832.424Z" transform="translate(0 16.006)" fill="#fff"/><path d="M535.452,827.812a10.494,10.494,0,0,0-2.212-7.043,9.882,9.882,0,0,1-2.135-6.5,9.259,9.259,0,0,1,7.744-8.518,9.166,9.166,0,0,1,10.377,9.906,8.273,8.273,0,0,1-1.681,4.477,11.956,11.956,0,0,0-2.556,5.621,21.228,21.228,0,0,0-.093,2.849,4.776,4.776,0,0,1-1.616,3.788,4.677,4.677,0,0,1-7.752-3.023C535.46,828.762,535.468,828.147,535.452,827.812Zm4.728-2.748c.7,0,1.4-.01,2.1.006.277.006.422-.069.485-.36a14.487,14.487,0,0,1,2.76-5.835,6.314,6.314,0,0,0,1.22-5.342,6.509,6.509,0,0,0-5.154-5.328,6.23,6.23,0,0,0-6.7,2.517,6.569,6.569,0,0,0-.063,8.15,15.2,15.2,0,0,1,2.766,5.837c.061.289.2.368.483.36C538.777,825.054,539.479,825.064,540.18,825.064Zm2.366,2.41h-4.734c.034.661.016,1.291.111,1.9a2.3,2.3,0,0,0,4.508,0A18.49,18.49,0,0,0,542.546,827.475Z" transform="translate(9.363 0.016)" fill="#00ec85"/><path d="M530.864,809.874a3.264,3.264,0,0,1-.521-.194q-1.621-.843-3.233-1.709a1.2,1.2,0,1,1,1.119-2.1c1.111.582,2.22,1.168,3.32,1.772a1.14,1.14,0,0,1,.606,1.36A1.2,1.2,0,0,1,530.864,809.874Z" transform="translate(4.485 0.015)" fill="#fff"/><path d="M543.21,809.891a1.164,1.164,0,0,1-1.19-.808,1.089,1.089,0,0,1,.44-1.325c1.253-.7,2.519-1.37,3.8-2.006a1.162,1.162,0,0,1,1.143,1.984c-1.283.747-2.61,1.418-3.924,2.113A.762.762,0,0,1,543.21,809.891Z" transform="translate(20.441 0)" fill="#fff"/><path d="M546.514,816.768a3.728,3.728,0,0,1-.541-.19q-1.609-.788-3.212-1.6a1.194,1.194,0,1,1,1.032-2.133c1.123.547,2.245,1.1,3.356,1.677a1.141,1.141,0,0,1,.637,1.388A1.19,1.19,0,0,1,546.514,816.768Z" transform="translate(20.438 7.161)" fill="#fff"/><path d="M527.552,816.791a1.163,1.163,0,0,1-1.164-.806,1.071,1.071,0,0,1,.432-1.323c1.277-.677,2.572-1.325,3.885-1.93a1.1,1.1,0,0,1,1.382.62,1.139,1.139,0,0,1-.5,1.527c-1.184.624-2.39,1.208-3.592,1.8A1.8,1.8,0,0,1,527.552,816.791Z" transform="translate(4.486 7.145)" fill="#fff"/><path d="M528.4,812c-.572,0-1.146.01-1.719,0a1.181,1.181,0,1,1-.045-2.362q1.746-.039,3.5,0a1.184,1.184,0,1,1-.063,2.366C529.511,812,528.955,812,528.4,812Z" transform="translate(3.6 4.04)" fill="#fff"/><path d="M545.763,811.995c-.574,0-1.148.01-1.721,0a1.179,1.179,0,1,1-.077-2.358q1.8-.049,3.6,0a1.168,1.168,0,0,1,1.14,1.194,1.18,1.18,0,0,1-1.222,1.162C546.91,812.005,546.336,811.995,545.763,811.995Z" transform="translate(21.327 4.04)" fill="#fff"/></g></svg>