<svg xmlns="http://www.w3.org/2000/svg" width="58.191" height="57.652" viewBox="0 0 58.191 57.652"><g transform="translate(-594.109 -804.241)"><path d="M625.049,819.277a1.576,1.576,0,0,1-1.645.837c-.927-.044-1.855,0-2.784-.015a1.225,1.225,0,0,1-1.328-1.185,1.2,1.2,0,0,1,1.179-1.276c1.131-.056,2.27-.023,3.4-.008a1.407,1.407,0,0,1,1.174.852Z" transform="translate(27.251 14.465)" fill="#00ec85"/><path d="M608.991,811.884a4.648,4.648,0,0,1,6.555,0,4.38,4.38,0,0,1,3.244-1.353,4.331,4.331,0,0,1,3.244,1.364,4.537,4.537,0,0,1,6.082-.387,4.312,4.312,0,0,1,1.718,3.488c.023,1.266,0,2.536,0,3.823.312.144.627.26.916.425a4.293,4.293,0,0,1,2.328,3.84c.033,3.219.131,6.449-.075,9.655a12.448,12.448,0,0,1-5.911,9.9,1.018,1.018,0,0,0-.546.985c.023,3.313.013,6.628.01,9.943,0,1.1-.446,1.551-1.547,1.553q-9.492.006-18.98,0c-1.1,0-1.541-.46-1.543-1.56,0-3.446.006-6.894-.012-10.34a1.368,1.368,0,0,0-.287-.8,12.063,12.063,0,0,1-2.963-7.852c-.038-6.515-.027-13.031,0-19.546a4.214,4.214,0,0,1,2.665-4.071,4.288,4.288,0,0,1,4.818.689C608.793,811.709,608.878,811.784,608.991,811.884Zm15.069,40.71v-.679c0-3.032.031-6.061-.017-9.091a1.972,1.972,0,0,1,1.16-1.982,9.645,9.645,0,0,0,5.256-7.821c.275-3.292.135-6.622.119-9.934a1.9,1.9,0,0,0-1.947-1.9c-3.275-.021-6.553-.012-9.828,0a1.955,1.955,0,0,0-1.576.777,1.868,1.868,0,0,0-.254,2.076,1.93,1.93,0,0,0,1.86,1.164c1.874.008,3.748,0,5.624,0,1.893,0,2.124.233,2.107,2.126-.01,1-.446,1.441-1.456,1.468a8.562,8.562,0,0,0-8.327,8.325c-.025.929-.512,1.476-1.3,1.453a1.255,1.255,0,0,1-1.2-1.478,10.966,10.966,0,0,1,5.1-9.07c.112-.077.221-.156.331-.235a5.362,5.362,0,0,1-4.175-1.452,4.652,4.652,0,0,1-6.544.006,4.733,4.733,0,0,1-5.281.937c0,2.374-.012,4.7,0,7.024a9.693,9.693,0,0,0,2.717,6.838,1.927,1.927,0,0,1,.564,1.424c-.015,3.144-.006,6.288-.006,9.433v.6Zm-20.346-33.505c0,1.324-.006,2.651,0,3.975a1.966,1.966,0,0,0,1.3,1.993,1.992,1.992,0,0,0,2.728-2.01c.027-2.63.01-5.262,0-7.894a2.6,2.6,0,0,0-.121-.781,2.01,2.01,0,0,0-3.9.683C603.7,816.4,603.716,817.743,603.714,819.089Zm10.559-.019h0c0-1.308.019-2.613-.01-3.919a2.657,2.657,0,0,0-.254-1.085,2,2,0,0,0-3.748.989c-.017,2.688-.008,5.376,0,8.065a2.523,2.523,0,0,0,.112.725,2,2,0,0,0,3.894-.629C614.292,821.833,614.273,820.45,614.273,819.07Zm13.06-.412c0-1.283.031-2.509-.008-3.733a2,2,0,0,0-1.895-1.912,1.9,1.9,0,0,0-2.045,1.58c-.1,1.345-.025,2.7-.025,4.065Zm-6.549,0c0-1.3.033-2.547-.01-3.792a1.966,1.966,0,0,0-1.936-1.858,1.945,1.945,0,0,0-2.02,1.7c-.083,1.46-.021,2.93-.021,4.468C618.082,818.489,619.425,818.72,620.784,818.66Z" transform="translate(7.678 6.774)" fill="#fff"/><path d="M606.951,809.225a1.426,1.426,0,0,1-1.037,1.226,1.113,1.113,0,0,1-1.345-.56c-.452-1.2-.845-2.417-1.2-3.646a1.2,1.2,0,0,1,.775-1.258,1.122,1.122,0,0,1,1.447.423C606.1,806.658,606.5,807.948,606.951,809.225Z" transform="translate(9.99 0.703)" fill="#00ec85"/><path d="M611.136,809.141a2.649,2.649,0,0,1,.075-.341c.314-.987.623-1.976.958-2.957a1.247,1.247,0,1,1,2.376.745q-.462,1.543-1,3.063a1.213,1.213,0,0,1-1.376.825A1.26,1.26,0,0,1,611.136,809.141Z" transform="translate(18.427 0.706)" fill="#00ec85"/><path d="M600.391,814.157a2.6,2.6,0,0,1-.6-.256q-1.306-.906-2.578-1.857a1.251,1.251,0,0,1-.329-1.758,1.227,1.227,0,0,1,1.753-.287c.9.623,1.789,1.27,2.663,1.932a1.169,1.169,0,0,1,.4,1.418A1.247,1.247,0,0,1,600.391,814.157Z" transform="translate(2.761 5.965)" fill="#00ec85"/><path d="M622.349,810.976a4.882,4.882,0,0,1-.746,1.076c-.808.652-1.666,1.243-2.519,1.841a1.248,1.248,0,0,1-1.807-.237,1.23,1.23,0,0,1,.354-1.785c.85-.633,1.71-1.251,2.572-1.868a1.061,1.061,0,0,1,1.322-.056A5.661,5.661,0,0,1,622.349,810.976Z" transform="translate(24.808 5.952)" fill="#00ec85"/><path d="M622.981,824.751a3.02,3.02,0,0,1-.4-.088c-.954-.3-1.909-.606-2.859-.929a1.256,1.256,0,1,1,.758-2.38c1.008.319,2.018.639,3.013,1a1.212,1.212,0,0,1,.8,1.4A1.29,1.29,0,0,1,622.981,824.751Z" transform="translate(26.626 18.432)" fill="#00ec85"/><path d="M602.824,812.092a4.123,4.123,0,0,1-1.008-.65c-.685-.856-1.318-1.755-1.945-2.655a1.244,1.244,0,1,1,2-1.485c.666.871,1.3,1.768,1.934,2.665a1.061,1.061,0,0,1,.05,1.324A5.5,5.5,0,0,1,602.824,812.092Z" transform="translate(5.963 2.756)" fill="#00ec85"/><path d="M615.748,812.017a1.3,1.3,0,0,1-1.141-1.928c.631-.985,1.335-1.928,2.059-2.849a1.152,1.152,0,0,1,1.676-.177,1.177,1.177,0,0,1,.285,1.664c-.637.939-1.3,1.864-2,2.753A3.061,3.061,0,0,1,615.748,812.017Z" transform="translate(21.98 2.752)" fill="#00ec85"/><path d="M596.067,824.858a1.471,1.471,0,0,1-1.262-1,1.174,1.174,0,0,1,.646-1.426c1.151-.425,2.322-.8,3.5-1.145a1.185,1.185,0,0,1,1.318.762,1.128,1.128,0,0,1-.427,1.449C598.605,824.007,597.329,824.413,596.067,824.858Z" transform="translate(0.703 18.414)" fill="#00ec85"/><path d="M600.475,815.638a1.344,1.344,0,0,1-1.6,1.3c-1.126-.312-2.243-.679-3.344-1.072a1.212,1.212,0,0,1-.731-1.441,1.176,1.176,0,0,1,1.379-.9,31.552,31.552,0,0,1,3.548,1.162C600.05,814.812,600.229,815.309,600.475,815.638Z" transform="translate(0.703 10.004)" fill="#00ec85"/><path d="M609.985,807.1c0,.529.012,1.06,0,1.589a1.248,1.248,0,1,1-2.495,0c-.014-1.039-.012-2.08,0-3.121a1.226,1.226,0,0,1,1.247-1.326,1.238,1.238,0,0,1,1.249,1.328c0,.037,0,.075,0,.115Z" transform="translate(14.469 0)" fill="#00ec85"/><path d="M624.308,814.824a1.158,1.158,0,0,1-.816,1.066c-1.072.366-2.149.722-3.238,1.037a1.228,1.228,0,0,1-.8-2.315c1.1-.4,2.211-.781,3.342-1.085A1.231,1.231,0,0,1,624.308,814.824Z" transform="translate(26.628 10.004)" fill="#00ec85"/><path d="M596.983,820.081c-.568,0-1.135.021-1.7,0a1.167,1.167,0,0,1-1.166-1.1,1.119,1.119,0,0,1,.972-1.31,35.872,35.872,0,0,1,3.79,0,1.129,1.129,0,0,1,.983,1.253,1.19,1.19,0,0,1-1.176,1.154C598.118,820.1,597.551,820.081,596.983,820.081Z" transform="translate(0 14.48)" fill="#00ec85"/><path d="M598.05,828.95a1.182,1.182,0,0,1-1.285-.777,1.1,1.1,0,0,1,.291-1.343c.941-.727,1.9-1.433,2.89-2.093a1.2,1.2,0,0,1,1.647.392,1.181,1.181,0,0,1-.252,1.626c-.9.693-1.82,1.351-2.749,2A1.666,1.666,0,0,1,598.05,828.95Z" transform="translate(2.76 21.983)" fill="#00ec85"/><path d="M622.252,827.677a1.291,1.291,0,0,1-1.937,1.112c-.983-.633-1.92-1.341-2.844-2.061a1.227,1.227,0,0,1,1.41-1.991c.991.656,1.953,1.36,2.888,2.093C622.006,827.015,622.1,827.39,622.252,827.677Z" transform="translate(24.805 21.979)" fill="#00ec85"/></g></svg>