<svg xmlns="http://www.w3.org/2000/svg" width="45.216" height="45.216" viewBox="0 0 45.216 45.216"><path d="M9.966,9.379v3.113H7.687v3.8H9.966V27.608H14.65V16.3h3.142s.3-1.824.439-3.821H14.668v-2.6a1.1,1.1,0,0,1,1.017-.913h2.55V5h-3.47c-4.915,0-4.8,3.809-4.8,4.379Z" transform="translate(9.692 6.304)" fill="#fff"/><path d="M22.608,40.694A18.086,18.086,0,1,0,4.522,22.608,18.086,18.086,0,0,0,22.608,40.694Zm0,4.522A22.608,22.608,0,1,1,45.216,22.608,22.607,22.607,0,0,1,22.608,45.216Z" fill="#fff"/></svg>