<svg xmlns="http://www.w3.org/2000/svg" width="63.815" height="61.631" viewBox="0 0 63.815 61.631"><g transform="translate(-589.838 -890.298)"><path d="M612.609,899.163a39.081,39.081,0,0,1,4.5-.411,17.792,17.792,0,0,1,17.277,15.628,1.457,1.457,0,0,0,.124.321v3.615c-.117.556-.244,1.115-.355,1.673a17.671,17.671,0,0,1-32.838,5.116,19.407,19.407,0,0,1-2.316-7.042l2.606-1.195a2.554,2.554,0,0,1,.1.417,14.743,14.743,0,0,0,2.9,7.83c3.646,4.872,8.493,7.216,14.573,6.215a14.894,14.894,0,0,0,12.467-16.493,14.253,14.253,0,0,0-5.119-9.716,14.723,14.723,0,0,0-14.215-3.01Z" transform="translate(19.138 17.643)" fill="#00ec85"/><path d="M620.75,931.279l-2.606,1.195a44.585,44.585,0,0,1-5.014,1.115,20.246,20.246,0,0,1-17.114-5.977,20.844,20.844,0,0,1-2.411-26.771c.1-.148.235-.284.352-.426-.015,1.133-.062,2.266-.028,3.4a8.234,8.234,0,0,0,.3,1.473,17.718,17.718,0,0,0-1.013,12.2,18.206,18.206,0,1,0,16.95-22.878,1.56,1.56,0,0,0-1.3-1.51c-.812-.216-1.605-.491-2.408-.741a16.907,16.907,0,0,1,5.366-.475,21,21,0,0,1,19.914,21.254c0,.145.006.29.009.435l-.287,2.949a1.326,1.326,0,0,0-.089.229,20.751,20.751,0,0,1-5.421,10.513A23.215,23.215,0,0,1,620.75,931.279Z" transform="translate(0 3.233)" fill="#fff"/><path d="M605.87,895.592c.8.25,1.6.525,2.408.741a1.56,1.56,0,0,1,1.3,1.51,6.54,6.54,0,0,1-.513.979c-.827,1.115-1.7,2.2-2.516,3.316a1.711,1.711,0,0,0-.309.951c.006,1.386.074,2.773.1,4.162.025,1.343-.8,1.942-2.059,1.5-1.346-.472-2.683-.976-4.035-1.43a1.381,1.381,0,0,0-.821,0c-1.315.438-2.63.886-3.918,1.389a1.768,1.768,0,0,1-1.868-.2,8.232,8.232,0,0,1-.3-1.473c-.034-1.13.012-2.263.028-3.4a2.173,2.173,0,0,0-.574-1.985c-.781-.911-1.482-1.893-2.217-2.847a1.425,1.425,0,0,1,.784-2.476c1.334-.386,2.674-.753,3.992-1.183a1.807,1.807,0,0,0,.846-.633c.815-1.124,1.581-2.285,2.371-3.427a1.394,1.394,0,0,1,2.523,0c.735,1.056,1.485,2.1,2.167,3.189a2.008,2.008,0,0,0,1.408.988C605.074,895.351,605.469,895.484,605.87,895.592Zm-6.039-1.482c-.587.855-1.133,1.587-1.609,2.365a2.6,2.6,0,0,1-1.7,1.229c-.892.219-1.766.509-2.717.793.667.868,1.254,1.667,1.883,2.436a2.369,2.369,0,0,1,.509,1.732c-.049.945-.016,1.893-.016,2.887.772-.269,1.553-.485,2.282-.818a3.13,3.13,0,0,1,2.742-.009c.744.336,1.541.559,2.272.818,0-1.081-.049-2.1.018-3.106a3.09,3.09,0,0,1,.469-1.42c.565-.861,1.235-1.655,1.9-2.522-1.059-.315-2.066-.562-3.026-.926a2.987,2.987,0,0,1-1.207-.883C601,895.9,600.464,895.033,599.831,894.11Z" transform="translate(0.588 0)" fill="#00ec85"/><path d="M607.784,898.944a1.345,1.345,0,0,1-1.284-2.019,11.2,11.2,0,0,1,1.562-1.754,1.277,1.277,0,0,1,1.559-.012c.494.371.831.951.506,1.451a17.327,17.327,0,0,1-1.924,2.208C608.1,898.932,607.858,898.923,607.784,898.944Z" transform="translate(34.344 9.606)" fill="#00ec85"/><path d="M606.066,896.014c.028,1.324-.973,2.109-2.013,1.569a2.4,2.4,0,0,1-.272-3.387,1.351,1.351,0,0,1,2.164.834C606.01,895.353,606.028,895.683,606.066,896.014Z" transform="translate(27.898 7.535)" fill="#00ec85"/><path d="M609.55,900.972c-.188,0-.374.009-.559,0a1.308,1.308,0,0,1-1.272-1.146,1.281,1.281,0,0,1,.883-1.464,6.8,6.8,0,0,1,1.908-.1,1.247,1.247,0,0,1,1,1.195,1.271,1.271,0,0,1-.858,1.365,7.2,7.2,0,0,1-1.1.185Z" transform="translate(37.289 16.563)" fill="#00ec85"/><path d="M607.013,910.139a6.179,6.179,0,0,1-4.2-1.673,1.373,1.373,0,1,1,1.834-2.032,3.351,3.351,0,0,0,4.671.022,1.4,1.4,0,0,1,2.05-.006,1.383,1.383,0,0,1-.253,2.075A6.124,6.124,0,0,1,607.013,910.139Z" transform="translate(25.945 32.793)" fill="#fff"/><path d="M607.415,906c0,.4.028.793,0,1.183a1.319,1.319,0,0,1-1.272,1.219,1.237,1.237,0,0,1-1.361-1.022,15.79,15.79,0,0,1,0-2.909,1.233,1.233,0,0,1,1.433-1,1.336,1.336,0,0,1,1.2,1.223c0,.04.009.083.009.124V906Z" transform="translate(31.051 27.493)" fill="#fff"/><path d="M604.745,905.938c0,.374.012.747,0,1.121a1.337,1.337,0,0,1-1.281,1.346,1.32,1.32,0,0,1-1.42-1.2,16.759,16.759,0,0,1,0-2.55,1.306,1.306,0,0,1,1.426-1.186,1.334,1.334,0,0,1,1.275,1.346C604.758,905.188,604.745,905.564,604.745,905.938Z" transform="translate(25.372 27.494)" fill="#fff"/><path d="M600.222,904.547a7,7,0,0,1-4.807-1.93,1.351,1.351,0,0,1-.188-2.029,1.379,1.379,0,0,1,2-.022,4.264,4.264,0,0,0,6.051-.037,1.368,1.368,0,1,1,1.859,2.007A7.057,7.057,0,0,1,600.222,904.547Z" transform="translate(10.463 20.564)" fill="#fff"/><path d="M597.251,899.8c0,.475.025.954,0,1.43a1.352,1.352,0,0,1-1.235,1.263,1.268,1.268,0,0,1-1.408-1.047,20.391,20.391,0,0,1,0-3.279,1.23,1.23,0,0,1,1.464-1.028,1.306,1.306,0,0,1,1.186,1.294c.025.454.006.911.006,1.368Z" transform="translate(9.81 14.256)" fill="#fff"/><path d="M600.506,899.834c0,.435.015.871,0,1.306a1.36,1.36,0,0,1-1.278,1.352,1.335,1.335,0,0,1-1.423-1.2,23.469,23.469,0,0,1,0-2.982,1.3,1.3,0,0,1,1.423-1.183,1.323,1.323,0,0,1,1.278,1.337C600.521,898.923,600.506,899.38,600.506,899.834Z" transform="translate(16.524 14.255)" fill="#fff"/></g></svg>