<svg xmlns="http://www.w3.org/2000/svg" width="54.755" height="55" viewBox="0 0 54.755 55"><g transform="translate(-638.448 -804.105)"><path d="M664.974,844.75l-1.915-1.244a2.979,2.979,0,0,1-4.133-.761.58.58,0,0,0-.386-.256c-2.147.114-2.6-.083-3.825-1.69a3.317,3.317,0,0,1-4.737-3.654,6.5,6.5,0,0,0-3.4-.754c-2.316-.2-4.636-.368-6.954-.555a1.193,1.193,0,0,1-1.153-1.48q.747-4.82,1.505-9.642c.195-1.236.388-2.472.6-3.705A1.133,1.133,0,0,1,642,819.93c2.094.256,4.184.543,6.275.818,1.189.157,2.371.374,3.564.447a6.417,6.417,0,0,0,1.781-.3c2.4-.559,4.792-1.151,7.2-1.69a10.117,10.117,0,0,1,2.106-.246q4.537-.038,9.076,0a4.476,4.476,0,0,1,1.505.281c2.088.777,4.156,1.61,6.244,2.395a1.885,1.885,0,0,0,.98.079c2.68-.533,5.352-1.1,8.031-1.649,1.078-.22,1.568.126,1.781,1.2q1.3,6.571,2.617,13.141a1.23,1.23,0,0,1-1.126,1.641q-5.378.977-10.756,1.966a1.989,1.989,0,0,0-.685.277q-3.949,2.477-7.889,4.973a6.067,6.067,0,0,1-4.569.854,1.041,1.041,0,0,0-.885.163,5.739,5.739,0,0,1-1.09.468Zm-16.74-10.778c.986.352,1.889.659,2.78,1a.464.464,0,0,0,.6-.122c.427-.458.866-.905,1.328-1.328a3.234,3.234,0,0,1,4.746.425c.13.167.246.344.378.531a3.375,3.375,0,0,1,2.56-.183,3.41,3.41,0,0,1,1.921,1.659,2.97,2.97,0,0,1,3.707,1.255.634.634,0,0,0,.673.352,2.817,2.817,0,0,1,2.881,2.3,11.031,11.031,0,0,1-.035,2.056,7.445,7.445,0,0,0,1.458-.539c2.292-1.409,4.556-2.863,6.878-4.333-.2-.108-.354-.191-.508-.276-1.547-.856-3.1-1.7-4.636-2.568a26.819,26.819,0,0,1-5.221-3.446c-1.234-1.136-2.422-2.322-3.658-3.515-.342.307-.718.661-1.114.99a6.7,6.7,0,0,1-8.786-.232,1.236,1.236,0,0,1-.039-2.06c1.069-1.055,2.145-2.1,3.215-3.158.1-.1.2-.218.3-.329-1.088.159-2.125.407-3.164.655a7.429,7.429,0,0,1-3.686.366,7.823,7.823,0,0,0-.97-.13Zm33.321-9.991a4.749,4.749,0,0,0-.565.1,2.724,2.724,0,0,1-1.919-.15c-2.1-.85-4.219-1.653-6.334-2.46a2.445,2.445,0,0,0-.83-.155q-4.619-.015-9.237.006a1.093,1.093,0,0,0-.695.27c-1.7,1.641-3.383,3.3-5.067,4.957-.1.094-.179.2-.275.315a4.3,4.3,0,0,0,4.978-.578c.523-.459,1.027-.945,1.539-1.419.891-.821,1.45-.781,2.245.14a25.592,25.592,0,0,0,6.153,5.626c2.92,1.722,5.911,3.324,8.875,4.973a.614.614,0,0,0,.348.1c.962-.169,1.921-.356,2.883-.537Zm-40.564,9.6,4.854.384,1.649-10.933-4.756-.632Zm47.4-11.018-4.518.933,2.111,11.258,4.668-.858Zm-27.772,14.756a3.975,3.975,0,0,0-.675-.732.787.787,0,0,0-1.019.2c-.61.6-1.22,1.206-1.818,1.822a.93.93,0,0,0-.073,1.34.908.908,0,0,0,1.374-.081c.588-.575,1.175-1.153,1.736-1.753A4.747,4.747,0,0,0,660.615,837.315Zm-4.477-1.431a3.346,3.346,0,0,0-.659-.744.827.827,0,0,0-1.029.193c-.6.608-1.214,1.21-1.812,1.826a.913.913,0,0,0-.057,1.372.929.929,0,0,0,1.338-.1c.588-.575,1.175-1.151,1.736-1.751A4.739,4.739,0,0,0,656.138,835.885Zm5.166,5.837a2.114,2.114,0,0,0,.48-.244q1.184-1.163,2.344-2.352a.55.55,0,0,0-.01-.854.534.534,0,0,0-.813.016c-.8.791-1.6,1.582-2.365,2.4a.753.753,0,0,0-.083.63C660.91,841.483,661.144,841.586,661.3,841.722Zm6.246-1.22c-.008-.421-.516-.773-.826-.512a11.476,11.476,0,0,0-1.565,1.588c-.254.317.12.815.543.8A4.616,4.616,0,0,0,667.55,840.5Z" transform="translate(0 14.355)" fill="#fff"/><path d="M674.044,818c-.25.659-.464,1.332-.762,1.97a8.231,8.231,0,0,1-.779,1.218,3.161,3.161,0,0,0-.573,1.806,15.37,15.37,0,0,1-.185,1.972,3.2,3.2,0,0,1-1.877,2.458c-.626.3-1.309.488-1.922.809a6.214,6.214,0,0,0-1.269.942,8.15,8.15,0,0,0-.821.99,3.724,3.724,0,0,1-4.193,1.393,4.161,4.161,0,0,1-.413-.11,4.922,4.922,0,0,0-3.5-.014,3.858,3.858,0,0,1-4.845-1.545,4.8,4.8,0,0,0-2.692-2,3.981,3.981,0,0,1-3.143-4.335,4.894,4.894,0,0,0-1.019-3.024c-1.368-1.972-1.407-3.269.018-5.209a6.376,6.376,0,0,0,1.057-3.733,3.593,3.593,0,0,1,2.438-3.4.593.593,0,0,1,.1-.039,6.206,6.206,0,0,0,3.564-2.564,3.507,3.507,0,0,1,3.955-1.338,5.681,5.681,0,0,1,.569.157,4.954,4.954,0,0,0,3.457.008,3.943,3.943,0,0,1,4.99,1.679,4.386,4.386,0,0,0,2.5,1.816A3.988,3.988,0,0,1,671.9,812.2a4.97,4.97,0,0,0,1.1,3.217,3.933,3.933,0,0,1,.905,2.529Zm-11.454,11.339a1.371,1.371,0,0,0,1.4-.639,7.48,7.48,0,0,1,4.365-3.176c.069-.02.134-.051.2-.077a1.283,1.283,0,0,0,.931-1.295,7.858,7.858,0,0,1,1.734-5.331,1.392,1.392,0,0,0,.016-1.793c-.161-.234-.3-.49-.47-.716a5.991,5.991,0,0,1-1.212-3.751c-.006-1.73-.106-1.881-1.738-2.436a6.9,6.9,0,0,1-3.477-2.554c-.9-1.232-1.145-1.273-2.59-.868-.035.01-.069.02-.1.031a6.661,6.661,0,0,1-4.26.034c-1.694-.516-1.8-.474-2.879.96a6.439,6.439,0,0,1-3.241,2.346c-1.72.571-1.84.74-1.854,2.578a6.176,6.176,0,0,1-1.161,3.607c-1.139,1.627-1.139,1.7-.01,3.312a6.164,6.164,0,0,1,1.171,3.6c.014,1.864.126,2.015,1.889,2.609a6.338,6.338,0,0,1,3.064,2.151c1.3,1.657,1.328,1.661,3.32,1.072a6.066,6.066,0,0,1,3.636.01C661.812,829.171,662.321,829.271,662.589,829.338Z" transform="translate(6.348)" fill="#00ec85"/><path d="M657.042,825.555a9.669,9.669,0,1,1,9.741-9.359A9.687,9.687,0,0,1,657.042,825.555Zm.055-16.976a7.308,7.308,0,1,0,7.324,7.265A7.3,7.3,0,0,0,657.1,808.578Z" transform="translate(8.715 2.042)" fill="#fff"/><path d="M652.994,814.555c1.686-1.69,3.251-3.261,4.817-4.829a6.166,6.166,0,0,1,.464-.447,1.165,1.165,0,0,1,1.523.031,1.149,1.149,0,0,1,.191,1.509,3.062,3.062,0,0,1-.419.484q-2.71,2.719-5.425,5.429c-.821.819-1.375.819-2.192,0-.608-.606-1.22-1.208-1.82-1.822a1.181,1.181,0,1,1,1.657-1.671C652.193,813.644,652.561,814.081,652.994,814.555Z" transform="translate(10.886 4.749)" fill="#00ec85"/></g></svg>