<svg xmlns="http://www.w3.org/2000/svg" width="24.501" height="27.936" viewBox="0 0 24.501 27.936"><g transform="translate(-709.163 -846.128)"><path d="M730.2,846.128l.486.115a3.929,3.929,0,0,1,2.962,3.533c.009.145.015.291.015.436q0,8.226,0,16.451a3.9,3.9,0,0,1-2.728,3.876,4.554,4.554,0,0,1-1.312.191c-3.719.014-7.439.007-11.158.014a.858.858,0,0,0-.448.136q-2.232,1.488-4.451,3a.63.63,0,0,1-1.073-.559c.006-.864,0-1.727,0-2.553a10.138,10.138,0,0,1-1.342-.554,3.838,3.838,0,0,1-1.985-3.52q0-6.193,0-12.386c0-1.4-.009-2.8,0-4.2a3.917,3.917,0,0,1,3.135-3.894,1.819,1.819,0,0,0,.217-.078Zm-16.5,26.2c.133-.085.216-.135.3-.189,1.181-.8,2.357-1.6,3.548-2.385a1.313,1.313,0,0,1,.678-.208c3.782-.012,7.565-.006,11.348-.015a3.473,3.473,0,0,0,1.018-.141,2.713,2.713,0,0,0,1.878-2.761q0-8.2,0-16.394c0-.091,0-.182-.008-.273a2.707,2.707,0,0,0-2.754-2.63q-8.279-.008-16.558,0a3,3,0,0,0-.908.144,2.709,2.709,0,0,0-1.866,2.742q0,8.21,0,16.421c0,.118.006.237.013.354a2.723,2.723,0,0,0,2.57,2.535c.555.026.743.22.744.775C713.7,870.961,713.7,871.615,713.7,872.327Z" transform="translate(0)" fill="#fff"/><path d="M734.934,874.051c0,.718,0,1.436,0,2.155a.268.268,0,0,0,.2.3,2.24,2.24,0,0,1,1.407,2.59,2.266,2.266,0,0,1-2.274,1.784q-1.609,0-3.218,0a2.262,2.262,0,0,1-2.26-1.8,2.235,2.235,0,0,1,1.4-2.569.284.284,0,0,0,.209-.319c-.01-.645-.009-1.291,0-1.937a.269.269,0,0,0-.2-.3,2.24,2.24,0,0,1-1.407-2.59,2.266,2.266,0,0,1,2.275-1.782c.618,0,1.24-.038,1.854.018a2.262,2.262,0,0,1,2.018,2.377C734.94,872.669,734.934,873.36,734.934,874.051Zm-1.218.285c0-.8,0-1.6,0-2.4a1.058,1.058,0,0,0-1.151-1.154c-.518,0-1.036,0-1.554,0a1.063,1.063,0,0,0-.073,2.125.623.623,0,0,1,.665.72q.008,1.595,0,3.189c0,.492-.195.692-.679.733a1.068,1.068,0,0,0-.99,1.1,1.055,1.055,0,0,0,1.037,1.023q1.69.014,3.38,0a1.054,1.054,0,0,0,1.037-1.024,1.071,1.071,0,0,0-.964-1.1c-.536-.055-.706-.242-.708-.791C733.715,875.953,733.716,875.145,733.716,874.336Z" transform="translate(-11.246 -13.469)" fill="#00ec85"/><path d="M734.9,853.952a2.264,2.264,0,1,1-2.272,2.273A2.275,2.275,0,0,1,734.9,853.952Zm1.049,2.268a1.053,1.053,0,1,0-1.051,1.06A1.053,1.053,0,0,0,735.953,856.22Z" transform="translate(-13.485 -4.496)" fill="#00ec85"/></g></svg>