<svg xmlns="http://www.w3.org/2000/svg" width="45.216" height="45.216" viewBox="0 0 45.216 45.216"><path d="M22.61,0C16.464,0,15.7.03,13.293.131A16.786,16.786,0,0,0,7.8,1.184,11.09,11.09,0,0,0,3.8,3.8a10.962,10.962,0,0,0-2.613,4,16.786,16.786,0,0,0-1.053,5.49C.025,15.7,0,16.462,0,22.608s.03,6.912.131,9.317a16.826,16.826,0,0,0,1.053,5.49,11.09,11.09,0,0,0,2.613,4,10.962,10.962,0,0,0,4,2.613,17.015,17.015,0,0,0,5.49,1.053c2.407.109,3.171.131,9.317.131s6.912-.03,9.317-.131a17.053,17.053,0,0,0,5.49-1.053,11.09,11.09,0,0,0,4-2.613,10.9,10.9,0,0,0,2.613-4,17.014,17.014,0,0,0,1.053-5.49c.109-2.407.131-3.171.131-9.317s-.03-6.912-.131-9.317A17,17,0,0,0,44.033,7.8a11.09,11.09,0,0,0-2.613-4,10.9,10.9,0,0,0-4-2.613A16.826,16.826,0,0,0,31.927.131C29.52.023,28.756,0,22.61,0Zm0,4.07c6.036,0,6.756.03,9.142.131a12.511,12.511,0,0,1,4.194.781,7.05,7.05,0,0,1,2.606,1.692,6.969,6.969,0,0,1,1.684,2.6,12.511,12.511,0,0,1,.781,4.194c.1,2.385.131,3.108.131,9.142s-.03,6.756-.14,9.142a12.863,12.863,0,0,1-.8,4.194,7.351,7.351,0,0,1-1.694,2.606,7.134,7.134,0,0,1-2.606,1.684,12.52,12.52,0,0,1-4.21.781c-2.4.1-3.1.131-9.156.131s-6.756-.03-9.157-.14a12.985,12.985,0,0,1-4.21-.8,7.094,7.094,0,0,1-2.6-1.694A6.79,6.79,0,0,1,4.89,35.913a12.641,12.641,0,0,1-.8-4.21c-.081-2.37-.119-3.1-.119-9.128s.038-6.756.119-9.156a12.658,12.658,0,0,1,.8-4.21A6.64,6.64,0,0,1,6.582,6.6a6.743,6.743,0,0,1,2.6-1.694,12.6,12.6,0,0,1,4.189-.787c2.4-.086,3.1-.117,9.147-.117Zm0,6.934A11.606,11.606,0,1,0,34.216,22.611,11.6,11.6,0,0,0,22.61,11Zm0,19.143a7.536,7.536,0,1,1,7.536-7.536A7.532,7.532,0,0,1,22.61,30.147ZM37.4,10.541A2.716,2.716,0,1,1,34.68,7.832,2.718,2.718,0,0,1,37.4,10.541Z" transform="translate(-0.002)" fill="#fff"/></svg>