<svg xmlns="http://www.w3.org/2000/svg" width="55.766" height="56" viewBox="0 0 55.766 56"><g transform="translate(-620.796 -868.097)"><path d="M673.251,878.021q.955,0,1.91.014a1.241,1.241,0,0,1,1.4,1.417,27.923,27.923,0,0,1-22.081,27.067c-1.135.244-2.3.339-3.452.507a1.3,1.3,0,0,0-.274.1h-4.376c-.612-.106-1.225-.225-1.84-.312a27.8,27.8,0,0,1-23.084-21.629,49.369,49.369,0,0,1-.65-5.74c-.081-.937.442-1.4,1.387-1.414q.955-.008,1.91-.014h49.149Zm-36.917,16.107a48.824,48.824,0,0,1-2.195-13.654h-10.92a25.458,25.458,0,0,0,7.761,17.093Zm30.043,3.439a25.488,25.488,0,0,0,7.755-17.1H663.209a48.9,48.9,0,0,1-2.184,13.662Zm-27.783-4.295a28.205,28.205,0,0,1,8.847-1.864V880.479H636.55A45.915,45.915,0,0,0,638.594,893.271Zm11.3-1.957c1.517.222,3.024.369,4.5.677s2.9.781,4.4,1.192a45.759,45.759,0,0,0,2.011-12.711H649.9Zm8.078,4.241a25.149,25.149,0,0,0-8.072-1.734v10.823C654.364,903.129,656.185,899.4,657.976,895.556Zm-18.559-.013a22.14,22.14,0,0,0,3.146,5.606,9.931,9.931,0,0,0,2.853,2.588c.631.355,1.317.607,2.021.927V893.819A25.211,25.211,0,0,0,639.417,895.542Zm25.076,3.65-4.317-2.75a25.365,25.365,0,0,1-4.265,7.178A24.491,24.491,0,0,0,664.493,899.192Zm-27.3-2.7c-.78.455-1.512.851-2.214,1.3s-1.352.938-2.07,1.442a24.288,24.288,0,0,0,8.533,4.371A24.991,24.991,0,0,1,637.2,896.5Z" transform="translate(0 16.968)" fill="#fff"/><path d="M640.6,894.989h-2.452c0-.165.008-.328.008-.493,0-1.639-.008-3.279,0-4.918.005-1.019.463-1.461,1.474-1.466h1.46c-.035-.189-.054-.331-.089-.466q-.947-3.475-1.9-6.945a3.154,3.154,0,0,0-6.135,0c-.523,1.894-1.035,3.791-1.55,5.685-.152.556-.3,1.111-.469,1.726h1.33c1.238,0,1.637.4,1.639,1.629q0,2.625.008,5.249h-2.452v-4.468c-.672,0-1.287,0-1.9,0a1.22,1.22,0,0,1-1.322-1.669c.8-2.948,1.607-5.894,2.406-8.842a5.712,5.712,0,0,1,1.994-2.983,5.107,5.107,0,0,1-1.639-4.645,4.853,4.853,0,0,1,1.734-3.07,5.071,5.071,0,0,1,6.934.331,5.153,5.153,0,0,1-.268,7.4c1.753,1.23,2.062,3.2,2.574,5.067q.894,3.264,1.786,6.525c.342,1.254-.144,1.883-1.442,1.886H640.6Zm-4.569-19.12a2.681,2.681,0,1,0-.011-5.363,2.681,2.681,0,1,0,.011,5.363Z" transform="translate(12.637)" fill="#00ec85"/><path d="M626.544,894.989h-2.452v-4.468c-.669,0-1.284,0-1.9,0a1.219,1.219,0,0,1-1.32-1.669c.794-2.948,1.607-5.894,2.4-8.842a5.716,5.716,0,0,1,2-2.983,5.1,5.1,0,0,1-1.642-4.645,4.844,4.844,0,0,1,1.737-3.07,5.067,5.067,0,0,1,6.931.331,5.149,5.149,0,0,1-.265,7.4c1.6,1.135,2,2.9,2.458,4.65.612,2.339,1.279,4.664,1.91,7,.322,1.189-.176,1.832-1.4,1.834h-1.791v4.468h-2.45c0-.382.005-.767.005-1.149,0-1.42-.014-2.843.005-4.262.014-1.038.461-1.461,1.474-1.463.472,0,.943,0,1.471,0-.049-.208-.079-.366-.119-.52-.626-2.3-1.246-4.6-1.881-6.894a3.154,3.154,0,0,0-6.135,0c-.515,1.856-1.019,3.715-1.526,5.577-.163.591-.317,1.181-.493,1.834h1.274c1.317,0,1.693.374,1.7,1.686Q626.544,892.39,626.544,894.989Zm2.124-19.12a2.681,2.681,0,1,0-2.71-2.65A2.69,2.69,0,0,0,628.668,875.869Z" transform="translate(0.011 0)" fill="#00ec85"/><path d="M647.985,894.988h-2.452c0-.42.005-.84.005-1.257,0-1.385-.014-2.77.008-4.154.013-1.038.461-1.461,1.471-1.463.471,0,.943,0,1.477,0-.054-.228-.089-.4-.135-.572q-.931-3.422-1.867-6.842a3.155,3.155,0,0,0-6.135,0q-.776,2.813-1.539,5.631c-.155.572-.309,1.146-.48,1.78h1.274c1.314,0,1.691.374,1.7,1.686q0,2.593.005,5.192h-2.449V890.52c-.691,0-1.323.006-1.957,0a1.214,1.214,0,0,1-1.265-1.669c.791-2.932,1.6-5.858,2.39-8.79a5.741,5.741,0,0,1,2.011-3.032,5.123,5.123,0,0,1-1.634-4.7,4.832,4.832,0,0,1,1.729-3.013,5.07,5.07,0,0,1,6.934.328,5.157,5.157,0,0,1-.268,7.4c1.574,1.125,1.994,2.862,2.447,4.6.61,2.341,1.276,4.666,1.91,7,.344,1.254-.141,1.883-1.439,1.886h-1.737Zm-4.563-19.12a2.681,2.681,0,1,0-.027-5.363,2.717,2.717,0,0,0-2.666,2.7A2.685,2.685,0,0,0,643.422,875.868Z" transform="translate(25.266 0.001)" fill="#00ec85"/></g></svg>