<svg xmlns="http://www.w3.org/2000/svg" width="54.715" height="61.621" viewBox="0 0 54.715 61.621"><g transform="translate(-630.924 -834.57)"><path d="M636.887,873.626a27.585,27.585,0,0,1-3.7-5.8c-5.006-11.027-1.584-23.329,9.055-29.97a21.71,21.71,0,0,1,8.954-3.067,6.237,6.237,0,0,0,.826-.218h4.332c.853.143,1.707.272,2.554.433a22.414,22.414,0,0,1,10.845,5.254,3.413,3.413,0,0,0,.289.209q.909.926,1.82,1.847c.107.14.212.29.325.424a22.488,22.488,0,0,1,5.027,20.142,23.2,23.2,0,0,1-20.45,18.433,23.542,23.542,0,0,1-12.406-2.038,25.536,25.536,0,0,1-5.669-3.792Zm-3.3-15.348a20.767,20.767,0,1,0,20.48-21.118A20.876,20.876,0,0,0,633.59,858.278Z" transform="translate(0 0)" fill="#fff"/><path d="M671.255,841.713q-.909-.922-1.82-1.847c1.522-1.537,3.037-3.085,4.577-4.6a1.316,1.316,0,0,1,1.975.125,31.106,31.106,0,0,1,8.975,23.982,31.31,31.31,0,0,1-23.624,28.353c-.424.1-.537.269-.531.683.024,1.5.012,3.01.012,4.514h-2.652v-4.413h-8.417v4.413H647.1c0-1.42-.027-2.843.018-4.264.015-.537-.134-.746-.668-.874a30.6,30.6,0,0,1-14.485-7.969c-.961-.931-.97-1.552-.036-2.479q2.175-2.157,4.353-4.308c.6.618,1.206,1.238,1.805,1.856-1.19,1.211-2.381,2.42-3.646,3.709,8.211,6.928,17.5,9.33,27.682,6.089,11.723-3.732,18.57-12,20-24.316a27.561,27.561,0,0,0-7.286-22.4Z" transform="translate(0.61 0.6)" fill="#00ec85"/><path d="M652.513,854.328h2.653c1.981.006,3.965.009,5.949.024a1.321,1.321,0,0,1,.283,2.625,3.2,3.2,0,0,1-.48.018q-12.589,0-25.182,0a1.491,1.491,0,0,1-1.453-.641,1.316,1.316,0,0,1,1.211-2.005c1.844-.018,3.685,0,5.529-.006.14,0,.28-.009.421-.018h11.069Z" transform="translate(6.262 39.192)" fill="#fff"/><path d="M649.448,869.1A15.977,15.977,0,0,1,633.4,853.122c.11-9.353,6.668-16.046,16.037-16.055,9.181-.012,15.891,6.471,16.055,16.043A15.985,15.985,0,0,1,649.448,869.1Zm-13.34-17.37.051,2.643a12.669,12.669,0,0,0,2.229,6.3l1.736,2.05a12.827,12.827,0,0,0,7.966,3.565h2.667c.513-.072,1.032-.107,1.536-.215a12.56,12.56,0,0,0,6.477-3.351l1.731-2.062a12.906,12.906,0,0,0,2.241-6.283l.018-2.655a11.942,11.942,0,0,0-2.268-6.254l-1.8-2.122a12.563,12.563,0,0,0-7.948-3.64l-2.644,0a12.694,12.694,0,0,0-7.912,3.634l-1.829,2.133A12.584,12.584,0,0,0,636.108,851.729Z" transform="translate(4.912 4.953)" fill="#fff"/><path d="M660.961,849.969l-.018,2.656h-4.514a13.684,13.684,0,0,0,2.274,6.283l-1.73,2.059a16.075,16.075,0,0,1-3.237-8.3h-4.777v11.872H646.29V852.618c-1.516,0-2.939.009-4.362-.006-.415-.006-.427.245-.459.54a15.659,15.659,0,0,1-3.145,7.817q-.868-1.025-1.733-2.05a13.59,13.59,0,0,0,2.253-6.3h-4.484c-.018-.88-.033-1.763-.051-2.643h4.479a11.741,11.741,0,0,0-2.223-6.257l1.829-2.133a16.64,16.64,0,0,1,3.109,8.02c.012.128.2.343.307.346,1.477.021,2.954.015,4.5.015V837.951l2.644,0q0,1.924,0,3.849,0,3.791,0,7.578c0,.233-.119.579.307.582,1.477.009,2.957,0,4.446,0,.119-.71.212-1.364.34-2.008a16.693,16.693,0,0,1,2.849-6.364l1.8,2.122a12.978,12.978,0,0,0-2.276,6.254Z" transform="translate(6.712 6.707)" fill="#00ec85"/></g></svg>