<svg xmlns="http://www.w3.org/2000/svg" width="42" height="42" viewBox="0 0 42 42"><g transform="translate(-304 -4931)"><rect width="42" height="42" rx="8" transform="translate(304 4931)" fill="#eafff6"/><g transform="translate(-276.838 4049.702)"><path d="M604.277,898.91a15.142,15.142,0,0,1,1.745-.159,6.894,6.894,0,0,1,6.694,6.056.569.569,0,0,0,.048.124v1.4c-.045.215-.094.432-.138.648a6.847,6.847,0,0,1-12.724,1.982,7.518,7.518,0,0,1-.9-2.729l1.01-.463a1,1,0,0,1,.041.162,5.713,5.713,0,0,0,1.123,3.034,5.562,5.562,0,0,0,5.646,2.408,5.771,5.771,0,0,0,4.831-6.39,5.523,5.523,0,0,0-1.983-3.765,5.7,5.7,0,0,0-5.508-1.166Z" transform="translate(1.8 1.659)" fill="#00ec85"/><path d="M601.815,907.126l-1.01.463a17.251,17.251,0,0,1-1.943.432,7.845,7.845,0,0,1-6.631-2.316,8.077,8.077,0,0,1-.934-10.373c.041-.057.091-.11.136-.165-.006.439-.024.878-.011,1.316a3.2,3.2,0,0,0,.116.571,6.865,6.865,0,0,0-.392,4.729,7.054,7.054,0,1,0,6.568-8.864.6.6,0,0,0-.5-.585c-.315-.084-.622-.19-.933-.287a6.553,6.553,0,0,1,2.079-.184,8.139,8.139,0,0,1,7.716,8.235c0,.056,0,.112,0,.169l-.111,1.142a.515.515,0,0,0-.035.089,8.041,8.041,0,0,1-2.1,4.073A8.993,8.993,0,0,1,601.815,907.126Z" transform="translate(0 0.304)" fill="#030303"/><path d="M596.222,892.35c.311.1.618.2.933.287a.6.6,0,0,1,.5.585,2.531,2.531,0,0,1-.2.379c-.321.432-.659.851-.975,1.285a.663.663,0,0,0-.12.368c0,.537.029,1.074.039,1.613.01.52-.31.753-.8.583-.522-.183-1.039-.378-1.563-.554a.534.534,0,0,0-.318,0c-.51.17-1.019.343-1.518.538a.685.685,0,0,1-.724-.078,3.2,3.2,0,0,1-.116-.571c-.013-.438,0-.877.011-1.316a.842.842,0,0,0-.222-.769c-.3-.353-.574-.733-.859-1.1a.552.552,0,0,1,.3-.959c.517-.149,1.036-.292,1.547-.458a.7.7,0,0,0,.328-.245c.316-.435.613-.885.919-1.328a.54.54,0,0,1,.977,0c.285.409.575.815.84,1.236a.778.778,0,0,0,.546.383C595.914,892.256,596.067,892.308,596.222,892.35Zm-2.34-.574c-.227.331-.439.615-.623.916a1.009,1.009,0,0,1-.66.476c-.346.085-.684.2-1.053.307.258.336.486.646.73.944a.917.917,0,0,1,.2.671c-.019.366-.006.733-.006,1.119.3-.1.6-.188.884-.317a1.213,1.213,0,0,1,1.062,0c.288.13.6.216.881.317,0-.419-.019-.812.007-1.2a1.2,1.2,0,0,1,.182-.55c.219-.334.478-.641.734-.977-.41-.122-.8-.218-1.172-.359a1.157,1.157,0,0,1-.468-.342C594.333,892.468,594.128,892.133,593.882,891.775Z" transform="translate(0.055)" fill="#00ec85"/><path d="M606.869,896.467a.521.521,0,0,1-.5-.782,4.341,4.341,0,0,1,.605-.68.5.5,0,0,1,.6,0c.191.143.322.368.2.562a6.72,6.72,0,0,1-.745.855C606.99,896.462,606.9,896.459,606.869,896.467Z" transform="translate(3.229 0.903)" fill="#00ec85"/><path d="M604.312,894.724c.011.513-.377.817-.78.608a.929.929,0,0,1-.105-1.312.524.524,0,0,1,.839.323C604.29,894.468,604.3,894.6,604.312,894.724Z" transform="translate(2.623 0.709)" fill="#00ec85"/><path d="M608.417,899.294c-.073,0-.145,0-.216,0a.507.507,0,0,1-.493-.444.5.5,0,0,1,.342-.567,2.636,2.636,0,0,1,.739-.039.483.483,0,0,1,.388.463.493.493,0,0,1-.333.529,2.792,2.792,0,0,1-.425.072Z" transform="translate(3.506 1.557)" fill="#00ec85"/><path d="M604.106,907.608a2.394,2.394,0,0,1-1.628-.648.532.532,0,1,1,.711-.787,1.3,1.3,0,0,0,1.81.008.544.544,0,0,1,.794,0,.536.536,0,0,1-.1.8A2.373,2.373,0,0,1,604.106,907.608Z" transform="translate(2.44 3.084)" fill="#030303"/><path d="M605.76,904.451c0,.153.011.307,0,.458a.511.511,0,0,1-.493.472.479.479,0,0,1-.528-.4,6.124,6.124,0,0,1,0-1.127.478.478,0,0,1,.555-.388.518.518,0,0,1,.467.474c0,.016,0,.032,0,.048v.458Z" transform="translate(2.92 2.585)" fill="#040404"/><path d="M603.059,904.426c0,.145,0,.289,0,.434a.518.518,0,0,1-.5.522.511.511,0,0,1-.55-.464,6.5,6.5,0,0,1,0-.988.506.506,0,0,1,.553-.459.517.517,0,0,1,.494.522C603.064,904.135,603.059,904.281,603.059,904.426Z" transform="translate(2.386 2.585)" fill="#040404"/><path d="M596.932,901.853a2.711,2.711,0,0,1-1.863-.748.523.523,0,0,1-.073-.786.534.534,0,0,1,.775-.008,1.652,1.652,0,0,0,2.345-.014.53.53,0,1,1,.72.778A2.734,2.734,0,0,1,596.932,901.853Z" transform="translate(0.984 1.934)" fill="#030303"/><path d="M595.588,898.163c0,.184.01.37,0,.554a.524.524,0,0,1-.478.489.491.491,0,0,1-.545-.406,7.89,7.89,0,0,1,0-1.27.476.476,0,0,1,.567-.4.506.506,0,0,1,.459.5c.01.176,0,.353,0,.53Z" transform="translate(0.922 1.341)" fill="#040404"/><path d="M598.82,898.176c0,.169.006.337,0,.506a.527.527,0,0,1-.5.524.517.517,0,0,1-.551-.464,9.091,9.091,0,0,1,0-1.156.5.5,0,0,1,.551-.458.512.512,0,0,1,.5.518C598.826,897.823,598.82,898,598.82,898.176Z" transform="translate(1.554 1.34)" fill="#040404"/></g></g></svg>