<svg xmlns="http://www.w3.org/2000/svg" width="99" height="50.961" viewBox="0 0 99 50.961"><g transform="translate(-717.391 -834.409)"><path d="M816.391,883.866a2.959,2.959,0,0,1-2.947,1.5q-32.53-.04-65.062-.019c-.193,0-.386,0-.58,0a2.178,2.178,0,0,1-2.435-2.45c-.014-3.191-.005-6.381-.005-9.571q0-17.982,0-35.963c0-2.3.638-2.939,2.916-2.939q32.578,0,65.158-.018a2.984,2.984,0,0,1,2.954,1.5ZM768.4,857l-16.807,24.051h58.568L793.348,857c-2.7,2.277-5.329,4.5-7.963,6.715-2.913,2.452-6.1,2.455-9.005.01C773.746,861.507,771.116,859.288,768.4,857Zm-14.81-18.256-.131.187a5.365,5.365,0,0,1,.541.356q12.561,10.586,25.118,21.176c1.306,1.1,2.218,1.106,3.514.013q12.559-10.588,25.11-21.186a7.512,7.512,0,0,0,.522-.546Zm43.03,15.5,15.476,22.14V841.19Zm-46.9-13.008V876.3c5.214-7.461,10.309-14.754,15.419-22.067Z" fill="#fff"/><path d="M727.158,859.717c-2.449,0-4.9.006-7.347,0a2.152,2.152,0,0,1-2.42-2.156,2.176,2.176,0,0,1,2.413-2.093q7.348-.015,14.7,0a2.165,2.165,0,0,1,2.306,1.664,2.017,2.017,0,0,1-1.005,2.294,3.344,3.344,0,0,1-1.391.28C731.992,859.731,729.575,859.717,727.158,859.717Z" fill="#00ec85"/><path d="M729.668,849.486c-1.64,0-3.28.014-4.919,0a2.15,2.15,0,0,1-2.305-2.075,2.179,2.179,0,0,1,2.252-2.164q4.967-.051,9.934,0a2.178,2.178,0,0,1,2.258,2.16,2.146,2.146,0,0,1-2.3,2.079C732.947,849.5,731.307,849.486,729.668,849.486Z" fill="#00ec85"/><path d="M729.606,869.95c-1.608,0-3.215.011-4.823,0a2.131,2.131,0,1,1-.024-4.245q4.871-.027,9.741,0a2.137,2.137,0,1,1,.025,4.247C732.885,869.96,731.245,869.95,729.606,869.95Z" fill="#00ec85"/></g></svg>