<svg xmlns="http://www.w3.org/2000/svg" width="42" height="42" viewBox="0 0 42 42"><g transform="translate(-304 -4864)"><rect width="42" height="42" rx="8" transform="translate(304 4864)" fill="#eafff6"/><g transform="translate(-230.389 4019.907)"><path d="M565.349,877.527a4.156,4.156,0,0,1-.408-.476c-.543-.853-1.072-1.715-1.608-2.573-.043-.069-.1-.13-.147-.194q-.2-.542-.4-1.084c0-.124-.011-.248-.011-.372a2.677,2.677,0,0,1,1.92-2.576c.157-.046.318-.081.477-.121l1.157.142a2.849,2.849,0,0,1,1.388,1.144,2.5,2.5,0,0,1,.132,2.529c-.577,1.121-1.22,2.209-1.845,3.3a1.366,1.366,0,0,1-.3.276Zm.157-1.609c.461-.823.911-1.585,1.322-2.368a1.573,1.573,0,1,0-2.833-1.359,1.361,1.361,0,0,0,.013,1.247C564.477,874.262,564.987,875.064,565.506,875.918Z" fill="#00ec85"/><path d="M562.783,873.2q.2.541.4,1.084a11.534,11.534,0,0,1-5.974,2.684,12.009,12.009,0,0,1-13.435-9.015,11.641,11.641,0,0,1,.8-8.166c.194-.39.443-.754.667-1.129q.318.516.638,1.031c-.2.4-.433.78-.606,1.189a10.7,10.7,0,0,0-.694,5.421,10.527,10.527,0,0,0,2.794,6.135,11.022,11.022,0,0,0,13.175,2.325A12.216,12.216,0,0,0,562.783,873.2Z" fill="#030303"/><path d="M566.325,870.273l-1.157-.143a10.317,10.317,0,0,0,1.195-4.154,10.944,10.944,0,0,0-9.054-11.7,10.274,10.274,0,0,0-7.3,1.281l-.843.51c.012-.047.023-.094.035-.14a2.688,2.688,0,0,0,.123-1.239,12.034,12.034,0,0,1,15.043,2.268,12.137,12.137,0,0,1,1.962,13.312Z" fill="#030303"/><path d="M549.32,854.693a2.688,2.688,0,0,1-.123,1.239c-.012.046-.023.093-.035.14l-.69,1.23q-.709,1.266-1.419,2.53a.56.56,0,0,1-1.048.013c-.035-.054-.079-.1-.118-.156q-.32-.515-.638-1.031c-.444-.726-.9-1.447-1.331-2.179a2.856,2.856,0,0,1,.2-3.235,2.766,2.766,0,0,1,3.047-1.036,2.812,2.812,0,0,1,2.135,2.387C549.311,854.627,549.315,854.66,549.32,854.693Zm-2.814,3.894c.543-.979,1.08-1.9,1.563-2.848a1.777,1.777,0,0,0,.145-.91,1.676,1.676,0,0,0-1.261-1.549,1.8,1.8,0,0,0-2.142,2.541C545.342,856.743,545.921,857.638,546.506,858.587Z" fill="#00ec85"/><path d="M555.461,857.029a8.021,8.021,0,1,1-8.032,8.033A8.033,8.033,0,0,1,555.461,857.029Zm-1.4,1.3a.924.924,0,0,0-.257,0,6.862,6.862,0,0,0-5.04,4.938c-.117.4-.163.814-.244,1.236h3.709c.006-.083.013-.156.017-.228a12.179,12.179,0,0,1,.9-4.292c.251-.575.608-1.1.917-1.654-.011-.01-.021-.02.019.019Zm3.528,6.174a9.234,9.234,0,0,0-2.128-6.189c-1.6,1.758-2,3.919-2.128,6.189Zm-4.247,1.109c-.014,2.393.933,5.131,2.124,6.167a9.185,9.185,0,0,0,2.1-6.167Zm-4.784,0a6.837,6.837,0,0,0,5.475,6.188,11.517,11.517,0,0,1-1.8-6.188Zm10.146-1.11h3.634a6.816,6.816,0,0,0-5.416-6.176C558.184,860.493,558.444,861.391,558.707,864.5Zm-1.817,7.312a6.863,6.863,0,0,0,5.445-6.192H558.7A11.569,11.569,0,0,1,556.89,871.811Z" fill="#030303"/><path d="M564.9,872.857a.532.532,0,0,1,.544-.546.541.541,0,0,1,.549.521.57.57,0,0,1-.536.568A.555.555,0,0,1,564.9,872.857Z" fill="#060606"/><path d="M546.413,854.471a.537.537,0,0,1,.56.532.547.547,0,1,1-1.094,0A.531.531,0,0,1,546.413,854.471Z" fill="#050505"/></g></g></svg>