<svg xmlns="http://www.w3.org/2000/svg" width="42" height="42" viewBox="0 0 42 42"><g transform="translate(-304 -4797)"><rect width="42" height="42" rx="8" transform="translate(304 4797)" fill="#eafff6"/><g transform="translate(-270.357 3944.347)"><path d="M589.381,885.931c-.132-.04-.263-.081-.395-.117a3.526,3.526,0,0,1-2.63-3.441,14.089,14.089,0,0,1,3.573-9.387q.67-.768,1.343-1.535a1.9,1.9,0,0,1,.295-3.524l-.585-1.77a1.248,1.248,0,0,1,1.272-1.75h1.415c.006-.066.015-.126.015-.186,0-.458-.007-.917.006-1.375a1.213,1.213,0,0,1,1.185-1.183c1.153-.012,2.308-.014,3.46,0a1.226,1.226,0,0,1,1.162,1.528c-.371,1.532-.755,3.061-1.133,4.59-.012.045-.016.092-.02.109l.884.507a3.649,3.649,0,0,1,1.223-1.178,3.529,3.529,0,0,1,1.755-.5c.372,0,.607.19.612.506s-.223.519-.593.537a2.564,2.564,0,0,0-2.317,1.57.315.315,0,0,0-.009.06,2.827,2.827,0,0,0,1.815.789c.173.006.348,0,.52,0a.525.525,0,0,1,.585.514.534.534,0,0,1-.573.53,3.9,3.9,0,0,1-2.631-.734,5.32,5.32,0,0,1-.411.544,4.732,4.732,0,0,1-.5.408c.651.768,1.341,1.521,1.963,2.327a13.834,13.834,0,0,1,2.851,7.178,7.079,7.079,0,0,1,0,2.171,3.524,3.524,0,0,1-2.925,2.759c-.025,0-.046.029-.068.046Zm5.581-1.043h0c1.715,0,3.428.011,5.143,0a2.419,2.419,0,0,0,2.4-2.149,8.813,8.813,0,0,0-.045-1.723A12.1,12.1,0,0,0,600.246,875c-.836-1.153-1.816-2.2-2.739-3.293a.358.358,0,0,0-.245-.089q-2.287-.007-4.574,0a.418.418,0,0,0-.277.122c-.372.409-.731.83-1.1,1.244a17.336,17.336,0,0,0-2.1,2.741,13.015,13.015,0,0,0-1.763,5.516,6.373,6.373,0,0,0,.016,1.673,2.432,2.432,0,0,0,2.466,1.97C591.613,884.891,593.288,884.888,594.963,884.888Zm2.3-17.021c.406-1.63.808-3.242,1.207-4.854.053-.217-.026-.309-.256-.309-1.075,0-2.148,0-3.222,0-.193,0-.27.085-.268.274,0,.5,0,.995,0,1.492a.257.257,0,0,0,.075.179,1.554,1.554,0,0,1,.506.807c.262.807.537,1.61.807,2.416Zm-2.293,2.706q1.409,0,2.818,0a.831.831,0,1,0,0-1.656q-2.819,0-5.637,0a.831.831,0,1,0,0,1.656Q593.564,870.574,594.973,870.572Zm-2.323-2.708h2.368c-.254-.761-.5-1.515-.763-2.262a.3.3,0,0,0-.234-.146c-.615-.012-1.231-.009-1.846,0-.209,0-.291.107-.227.307C592.176,866.46,592.414,867.16,592.65,867.864Z" transform="translate(0 0)" fill="#020202"/><path d="M593.446,879.573c-.375-.167-.719-.3-1.043-.47a.519.519,0,1,1,.525-.889,1.738,1.738,0,0,0,1.061.261.913.913,0,0,0,.877-.86.7.7,0,0,0-.506-.694c-.422-.177-.848-.344-1.258-.545a1.424,1.424,0,0,1-.787-.9,1.663,1.663,0,0,1,.943-1.977c.113-.047.19-.085.213-.234a.514.514,0,0,1,.989-.046c.04.155.129.2.261.25a2.867,2.867,0,0,1,.619.337.5.5,0,0,1,.094.716.506.506,0,0,1-.718.1,1.117,1.117,0,0,0-.986-.188.569.569,0,0,0-.422.49.433.433,0,0,0,.271.519c.4.175.793.35,1.193.515a1.709,1.709,0,0,1,1.132,1.67,1.913,1.913,0,0,1-1.217,1.743c-.1.043-.191.059-.2.211a.508.508,0,0,1-.495.484.535.535,0,0,1-.533-.449C593.447,879.587,593.442,879.549,593.446,879.573Z" transform="translate(1.003 1.957)" fill="#00ec85"/></g></g></svg>