<svg xmlns="http://www.w3.org/2000/svg" width="28.567" height="28.555" viewBox="0 0 28.567 28.555"><g transform="translate(-780.253 -819.128)"><path d="M804.132,842.278a2.351,2.351,0,0,1-2.121,0,2.182,2.182,0,0,1-1.273-2.011q-.028-4.31,0-8.619a2.3,2.3,0,0,1,3.113-2.108c.085.032.171.06.262.093a9.577,9.577,0,0,0-19.145.01,2.433,2.433,0,0,1,1.522-.2,2.287,2.287,0,0,1,1.847,2.158q.024,4.366,0,8.731a2.292,2.292,0,0,1-1.878,2.165,2.332,2.332,0,0,1-2.564-1.386c-.036-.084-.063-.172-.1-.277-.378,0-.758,0-1.138,0a2.318,2.318,0,0,1-2.4-2.412q0-2.455,0-4.909a2.3,2.3,0,0,1,2.258-2.406c.389-.023.78,0,1.2,0,0-.357,0-.7,0-1.04a10.912,10.912,0,0,1,9.186-10.812c.194-.034.385-.08.578-.12h2.008a.345.345,0,0,0,.108.054,9.788,9.788,0,0,1,3.666,1.047,10.763,10.763,0,0,1,6.1,9.9c.007.314,0,.628,0,.978.447,0,.873-.022,1.3,0a2.291,2.291,0,0,1,2.1,1.743,1.463,1.463,0,0,0,.066.165v5.97a1.441,1.441,0,0,0-.105.209,2.316,2.316,0,0,1-2.185,1.631c-.389.008-.778.007-1.168.011-.038.027-.1.047-.111.082A2.546,2.546,0,0,1,804.132,842.278Zm-17.015-6.329c0-1.412,0-2.824,0-4.236a1.085,1.085,0,1,0-2.171,0q-.008,4.249.006,8.5a1.271,1.271,0,0,0,.2.622,1.051,1.051,0,0,0,1.2.425,1.084,1.084,0,0,0,.77-1.045C787.12,838.791,787.117,837.37,787.117,835.949Zm17.016.031c0-1.421,0-2.842,0-4.263a1.085,1.085,0,1,0-2.171-.008q-.007,4.25,0,8.5a1.087,1.087,0,1,0,2.174-.02Q804.137,838.084,804.133,835.98Zm1.235,3.624h1.016a2.219,2.219,0,0,0,.223-.005,1.07,1.07,0,0,0,.98-1.037q.016-2.605,0-5.211a1.009,1.009,0,0,0-.857-.992c-.448-.044-.9-.01-1.362-.01Zm-21.661-7.284c-.319,0-.615,0-.91,0a3.159,3.159,0,0,0-.334.014,1.065,1.065,0,0,0-.978,1.063q-.01,2.564,0,5.128a1.046,1.046,0,0,0,.92,1.058c.429.043.864.009,1.3.009Z" fill="#fff"/><path d="M819.7,870.479a2.546,2.546,0,0,0,1.118-1.355c.012-.036.073-.055.111-.082q0,1.338,0,2.676a2.333,2.333,0,0,1-2.477,2.481q-2.885.007-5.77,0a.4.4,0,0,0-.448.288,2.267,2.267,0,0,1-2.61,1.357,2.316,2.316,0,0,1-.055-4.512,2.282,2.282,0,0,1,2.7,1.424.275.275,0,0,0,.3.208c2.007-.006,4.014,0,6.021-.006a1.069,1.069,0,0,0,1.107-1.108C819.7,871.39,819.7,870.935,819.7,870.479Zm-10.673,3.1a1.078,1.078,0,1,0,1.061-1.084A1.039,1.039,0,0,0,809.026,873.576Z" transform="translate(-15.567 -28.201)" fill="#00ec85"/></g></svg>