<svg xmlns="http://www.w3.org/2000/svg" width="54.259" height="54.259" viewBox="0 0 54.259 54.259"><path d="M0,0H54.259V54.259H0" fill="#fff" opacity="0"/><path d="M15.474,40.175h-.181A24.575,24.575,0,0,1,4.78,37.71a3.12,3.12,0,0,1-1.763-3.256,3.188,3.188,0,0,1,2.623-2.668,14.989,14.989,0,0,0,5.742-2.012A21.455,21.455,0,0,1,3.446,9.27a3.188,3.188,0,0,1,2.261-2.6A3.052,3.052,0,0,1,8.94,7.6a16.029,16.029,0,0,0,11.033,6.217A10.159,10.159,0,0,1,37.562,7.235a1.583,1.583,0,0,0,1.763.226,3.142,3.142,0,0,1,4.386,3.617,15.057,15.057,0,0,1-2.894,5.878A24.394,24.394,0,0,1,15.474,40.175Zm0-4.522h.181a19.872,19.872,0,0,0,20.551-19.42,2.984,2.984,0,0,1,.836-1.922,11.733,11.733,0,0,0,1.4-2.261,5.788,5.788,0,0,1-4.318-1.922,5.539,5.539,0,0,0-3.979-1.605,5.652,5.652,0,0,0-4.047,1.56,5.72,5.72,0,0,0-1.628,5.471l.588,2.577-2.645.181A18.764,18.764,0,0,1,7.629,12.887a16.1,16.1,0,0,0,8.433,14.6l2.148,1.221-1.424,2.035a12.706,12.706,0,0,1-6.059,4.341,18.855,18.855,0,0,0,4.725.565Z" transform="translate(3.766 5.041)" fill="#fff"/></svg>