<svg xmlns="http://www.w3.org/2000/svg" width="195.804" height="43.603" viewBox="0 0 195.804 43.603"><g transform="translate(-489.089 -309.005)"><g transform="translate(542.79 319.426)"><path d="M634.222,343.824h-6.731v-3.582h17.628v3.582h-6.748V362.9h-4.149Z" transform="translate(-627.491 -338.543)" fill="#222237"/><path d="M666.573,362.22a9.021,9.021,0,0,1,.7-3.54,8.791,8.791,0,0,1,1.958-2.891,9.293,9.293,0,0,1,2.991-1.95,9.816,9.816,0,0,1,3.782-.716,9.922,9.922,0,0,1,3.807.716,9.276,9.276,0,0,1,3,1.95,8.946,8.946,0,0,1,2.674,6.431,5.307,5.307,0,0,1-.033.667c-.023.167-.045.327-.067.483H670.555a5.581,5.581,0,0,0,1.991,3.34,5.732,5.732,0,0,0,1.641.917,5.408,5.408,0,0,0,1.85.325,5.181,5.181,0,0,0,2.649-.667,4.554,4.554,0,0,0,1.75-1.75h4.382a8.223,8.223,0,0,1-1.216,2.174,8.955,8.955,0,0,1-1.924,1.841,9.626,9.626,0,0,1-2.55,1.275,10.425,10.425,0,0,1-6.906-.242,9.279,9.279,0,0,1-2.991-1.949,8.811,8.811,0,0,1-1.958-2.883A8.955,8.955,0,0,1,666.573,362.22Zm9.464-5.848a5.706,5.706,0,0,0-1.908.308,5.373,5.373,0,0,0-1.566.859,5.27,5.27,0,0,0-1.174,1.308,5.738,5.738,0,0,0-.717,1.658h10.546a6.05,6.05,0,0,0-.7-1.658,5.256,5.256,0,0,0-1.133-1.308,5.124,5.124,0,0,0-1.508-.859A5.318,5.318,0,0,0,676.037,356.372Z" transform="translate(-651.409 -346.426)" fill="#222237"/><path d="M722.6,362.178a5.876,5.876,0,0,0,.442,2.332,5.321,5.321,0,0,0,1.191,1.758,5.187,5.187,0,0,0,1.725,1.107,5.515,5.515,0,0,0,2.041.384,5.349,5.349,0,0,0,2.849-.775,5.135,5.135,0,0,0,1.95-2.158h4.148a8.326,8.326,0,0,1-1.2,2.574,8.811,8.811,0,0,1-1.974,2.041,9.075,9.075,0,0,1-2.624,1.349,10.05,10.05,0,0,1-3.166.483,9.8,9.8,0,0,1-3.782-.716,9.28,9.28,0,0,1-2.991-1.949,8.911,8.911,0,0,1-2.675-6.415,9.007,9.007,0,0,1,.7-3.54,8.878,8.878,0,0,1,1.957-2.9,9.23,9.23,0,0,1,2.991-1.957,9.85,9.85,0,0,1,3.8-.716,9.966,9.966,0,0,1,3.157.483,9.252,9.252,0,0,1,2.616,1.341,8.6,8.6,0,0,1,1.974,2.041,8.744,8.744,0,0,1,1.216,2.583H732.8a5.032,5.032,0,0,0-1.941-2.141,5.39,5.39,0,0,0-2.858-.774,5.57,5.57,0,0,0-2.058.383,5.093,5.093,0,0,0-1.715,1.108,5.371,5.371,0,0,0-1.183,1.758A5.834,5.834,0,0,0,722.6,362.178Z" transform="translate(-683.208 -346.4)" fill="#222237"/><path d="M788.876,361.613h-4.082v-9.23a7.793,7.793,0,0,0-.3-2.341,3.666,3.666,0,0,0-.875-1.516,3.216,3.216,0,0,0-1.4-.816,6.724,6.724,0,0,0-1.891-.242,4.826,4.826,0,0,0-1.841.35,4.261,4.261,0,0,0-1.483,1,4.7,4.7,0,0,0-.983,1.557,5.416,5.416,0,0,0-.359,2.008v9.247h-4.048V338.137h4.032l-.017,7.9a8.8,8.8,0,0,1,2.416-1.483,7.78,7.78,0,0,1,3.066-.6,9.859,9.859,0,0,1,3.465.55A6.054,6.054,0,0,1,787,346.118a6.681,6.681,0,0,1,1.416,2.624,12.686,12.686,0,0,1,.458,3.573Z" transform="translate(-715.694 -337.254)" fill="#222237"/><path d="M833.363,346.575h-7.215v13.645h-4.065V346.575h-3.316v-3.5h3.316v-.733a9.828,9.828,0,0,1,.283-2.333,5.671,5.671,0,0,1,.966-2.082,5.058,5.058,0,0,1,1.833-1.492,6.466,6.466,0,0,1,2.9-.574h2.983v3.332l-2.033-.016a3.257,3.257,0,0,0-1.35.249,2.321,2.321,0,0,0-.891.691,2.678,2.678,0,0,0-.483,1.033,5.439,5.439,0,0,0-.142,1.275v.65h11.28v17.144h-4.065Zm-.466-8.348a2.111,2.111,0,0,1,.183-.875,2.24,2.24,0,0,1,.509-.717,2.427,2.427,0,0,1,.791-.492,2.8,2.8,0,0,1,1.033-.183,2.87,2.87,0,0,1,1.042.183,2.507,2.507,0,0,1,.808.492,2.194,2.194,0,0,1,.517.717,2.18,2.18,0,0,1,0,1.749,2.2,2.2,0,0,1-.517.717,2.392,2.392,0,0,1-.808.483,3.008,3.008,0,0,1-1.042.175,2.865,2.865,0,0,1-1.024-.175,2.429,2.429,0,0,1-.792-.483,2.188,2.188,0,0,1-.517-.717A2.111,2.111,0,0,1,832.9,338.228Z" transform="translate(-744.55 -335.862)" fill="#222237"/><path d="M873.994,362.22a9.013,9.013,0,0,1,.7-3.54,8.793,8.793,0,0,1,1.958-2.891,9.3,9.3,0,0,1,2.991-1.95,9.816,9.816,0,0,1,3.782-.716,9.921,9.921,0,0,1,3.807.716,9.276,9.276,0,0,1,3,1.95,8.946,8.946,0,0,1,2.674,6.431,5.309,5.309,0,0,1-.033.667c-.023.167-.045.327-.067.483H877.976a5.582,5.582,0,0,0,1.991,3.34,5.734,5.734,0,0,0,1.641.917,5.41,5.41,0,0,0,1.85.325,5.182,5.182,0,0,0,2.649-.667,4.556,4.556,0,0,0,1.75-1.75h4.382a8.233,8.233,0,0,1-1.216,2.174,8.946,8.946,0,0,1-1.924,1.841,9.617,9.617,0,0,1-2.55,1.275,10.425,10.425,0,0,1-6.906-.242,9.283,9.283,0,0,1-2.991-1.949,8.812,8.812,0,0,1-1.958-2.883A8.947,8.947,0,0,1,873.994,362.22Zm9.464-5.848a5.7,5.7,0,0,0-1.907.308,5.372,5.372,0,0,0-1.566.859,5.277,5.277,0,0,0-1.175,1.308,5.738,5.738,0,0,0-.716,1.658h10.546a6.036,6.036,0,0,0-.7-1.658,5.246,5.246,0,0,0-1.133-1.308,5.125,5.125,0,0,0-1.508-.859A5.317,5.317,0,0,0,883.458,356.372Z" transform="translate(-778.348 -346.426)" fill="#222237"/><path d="M928.578,338.137h4.048v23.476h-4.048Z" transform="translate(-811.753 -337.254)" fill="#222237"/><path d="M944.987,353.049a9.618,9.618,0,0,1,.65-3.54,8.753,8.753,0,0,1,1.841-2.9,8.589,8.589,0,0,1,2.874-1.957,9.434,9.434,0,0,1,3.732-.716,8.249,8.249,0,0,1,3.283.616,8.911,8.911,0,0,1,2.482,1.566v-7.981H963.9v23.476h-3.466l-.25-2a8.464,8.464,0,0,1-1.158.991,8.055,8.055,0,0,1-1.408.8,8.971,8.971,0,0,1-1.633.542,8.136,8.136,0,0,1-1.833.2,9.488,9.488,0,0,1-3.74-.717,8.723,8.723,0,0,1-2.891-1.949,8.814,8.814,0,0,1-1.866-2.891A9.394,9.394,0,0,1,944.987,353.049Zm4.048-.017a5.792,5.792,0,0,0,.434,2.266,5.411,5.411,0,0,0,1.182,1.774,5.326,5.326,0,0,0,1.75,1.149,5.815,5.815,0,0,0,4.282,0,5.224,5.224,0,0,0,1.741-1.149,5.488,5.488,0,0,0,1.175-1.767,5.784,5.784,0,0,0,.433-2.274,5.7,5.7,0,0,0-.433-2.241,5.334,5.334,0,0,0-1.183-1.758,5.521,5.521,0,0,0-3.9-1.566,5.638,5.638,0,0,0-2.149.408,5.247,5.247,0,0,0-1.741,1.15,5.4,5.4,0,0,0-1.166,1.766A5.8,5.8,0,0,0,949.035,353.032Z" transform="translate(-821.795 -337.254)" fill="#222237"/></g><path d="M514.146,323.235l-6.582,6.582a5.593,5.593,0,0,1,0-7.91l4.14-4.14a3.974,3.974,0,0,1,5.62,0l15.255,15.255a22.117,22.117,0,0,0,.112-2.215,21.791,21.791,0,0,0-41.638-9.009l16.58,16.58,6.582-6.581a5.594,5.594,0,0,1,0,7.91l-4.141,4.14a3.974,3.974,0,0,1-5.62,0L489.2,328.591a22.1,22.1,0,0,0-.112,2.215,21.791,21.791,0,0,0,41.638,9.009Z" transform="translate(0)" fill="#00ec85"/></g></svg>