<svg xmlns="http://www.w3.org/2000/svg" width="355.746" height="79.221" viewBox="0 0 355.746 79.221"><g transform="translate(-600 -7698)"><g transform="translate(697.567 7716.933)"><path d="M639.721,346.75h-12.23v-6.508h32.028v6.508H647.258v34.66h-7.537Z" transform="translate(-627.491 -337.154)" fill="#fff"/><path d="M666.573,369.651a16.389,16.389,0,0,1,1.271-6.432,15.971,15.971,0,0,1,3.557-5.252,16.885,16.885,0,0,1,5.434-3.542,17.834,17.834,0,0,1,6.872-1.3,18.027,18.027,0,0,1,6.917,1.3,16.853,16.853,0,0,1,5.449,3.542,16.252,16.252,0,0,1,4.859,11.684,9.664,9.664,0,0,1-.06,1.211c-.042.3-.082.595-.122.878H673.807a10.14,10.14,0,0,0,3.618,6.069,10.414,10.414,0,0,0,2.982,1.666,9.824,9.824,0,0,0,3.361.59,9.413,9.413,0,0,0,4.813-1.211,8.274,8.274,0,0,0,3.179-3.179h7.961a14.941,14.941,0,0,1-2.21,3.951,16.269,16.269,0,0,1-3.5,3.346,17.487,17.487,0,0,1-4.633,2.316,18.941,18.941,0,0,1-12.547-.44,16.858,16.858,0,0,1-5.434-3.541,16.007,16.007,0,0,1-3.557-5.238A16.269,16.269,0,0,1,666.573,369.651Zm17.195-10.624a10.366,10.366,0,0,0-3.466.559,9.761,9.761,0,0,0-2.846,1.56,9.575,9.575,0,0,0-2.133,2.376,10.423,10.423,0,0,0-1.3,3.012h19.161a10.993,10.993,0,0,0-1.27-3.012,9.552,9.552,0,0,0-2.059-2.376,9.309,9.309,0,0,0-2.739-1.56A9.663,9.663,0,0,0,683.768,359.026Z" transform="translate(-639.022 -340.955)" fill="#fff"/><path d="M725.92,369.608a10.676,10.676,0,0,0,.8,4.238,9.668,9.668,0,0,0,2.164,3.195,9.424,9.424,0,0,0,3.134,2.012,10.02,10.02,0,0,0,3.708.7,9.719,9.719,0,0,0,5.176-1.408,9.33,9.33,0,0,0,3.542-3.921h7.537A15.127,15.127,0,0,1,749.8,379.1a16.007,16.007,0,0,1-3.587,3.708,16.49,16.49,0,0,1-4.767,2.452,18.26,18.26,0,0,1-5.752.878,17.807,17.807,0,0,1-6.871-1.3,16.862,16.862,0,0,1-5.434-3.541,16.189,16.189,0,0,1-4.859-11.655,16.365,16.365,0,0,1,1.272-6.432,16.131,16.131,0,0,1,3.556-5.268,16.77,16.77,0,0,1,5.434-3.556,17.9,17.9,0,0,1,6.9-1.3,18.108,18.108,0,0,1,5.736.878,16.81,16.81,0,0,1,4.754,2.436,15.63,15.63,0,0,1,3.586,3.708,15.887,15.887,0,0,1,2.21,4.693h-7.537a9.142,9.142,0,0,0-3.526-3.891,9.793,9.793,0,0,0-5.192-1.407,10.121,10.121,0,0,0-3.739.7,9.254,9.254,0,0,0-3.116,2.013,9.759,9.759,0,0,0-2.15,3.193A10.6,10.6,0,0,0,725.92,369.608Z" transform="translate(-654.353 -340.942)" fill="#fff"/><path d="M802.975,380.789h-7.416v-16.77a14.16,14.16,0,0,0-.545-4.253,6.661,6.661,0,0,0-1.589-2.754,5.843,5.843,0,0,0-2.543-1.483,12.215,12.215,0,0,0-3.436-.439,8.768,8.768,0,0,0-3.344.635,7.743,7.743,0,0,0-2.694,1.817,8.545,8.545,0,0,0-1.785,2.83,9.839,9.839,0,0,0-.651,3.648v16.8h-7.355V338.137h7.325l-.031,14.349a15.98,15.98,0,0,1,4.39-2.694,14.134,14.134,0,0,1,5.57-1.09,17.914,17.914,0,0,1,6.3,1,11,11,0,0,1,4.405,2.937,12.141,12.141,0,0,1,2.572,4.768,23.051,23.051,0,0,1,.832,6.492Z" transform="translate(-670.014 -336.533)" fill="#fff"/><path d="M845.286,355.327H832.178v24.791h-7.385V355.327h-6.025v-6.357h6.025v-1.332a17.855,17.855,0,0,1,.515-4.238,10.3,10.3,0,0,1,1.755-3.783,9.19,9.19,0,0,1,3.329-2.711,11.747,11.747,0,0,1,5.267-1.043h5.42v6.053l-3.694-.03a5.917,5.917,0,0,0-2.452.453,4.216,4.216,0,0,0-1.619,1.256,4.864,4.864,0,0,0-.878,1.877,9.878,9.878,0,0,0-.259,2.316v1.181h20.494v31.149h-7.386Zm-.847-15.166a3.835,3.835,0,0,1,.332-1.589,4.07,4.07,0,0,1,.924-1.3,4.41,4.41,0,0,1,1.437-.894,5.094,5.094,0,0,1,1.877-.333,5.214,5.214,0,0,1,1.893.333,4.555,4.555,0,0,1,1.468.894,3.989,3.989,0,0,1,.939,1.3,3.96,3.96,0,0,1,0,3.178,4,4,0,0,1-.939,1.3,4.346,4.346,0,0,1-1.468.878,5.465,5.465,0,0,1-1.893.318,5.2,5.2,0,0,1-1.861-.318,4.412,4.412,0,0,1-1.438-.878,3.975,3.975,0,0,1-.939-1.3A3.835,3.835,0,0,1,844.438,340.16Z" transform="translate(-683.926 -335.862)" fill="#fff"/><path d="M873.994,369.651a16.376,16.376,0,0,1,1.271-6.432,15.975,15.975,0,0,1,3.557-5.252,16.892,16.892,0,0,1,5.434-3.542,17.834,17.834,0,0,1,6.872-1.3,18.026,18.026,0,0,1,6.916,1.3,16.854,16.854,0,0,1,5.449,3.542,16.254,16.254,0,0,1,4.858,11.684,9.64,9.64,0,0,1-.06,1.211c-.041.3-.082.595-.122.878H881.228a10.143,10.143,0,0,0,3.618,6.069,10.418,10.418,0,0,0,2.981,1.666,9.827,9.827,0,0,0,3.36.59A9.416,9.416,0,0,0,896,378.853a8.279,8.279,0,0,0,3.179-3.179h7.961a14.955,14.955,0,0,1-2.21,3.951,16.25,16.25,0,0,1-3.5,3.346,17.469,17.469,0,0,1-4.632,2.316,18.941,18.941,0,0,1-12.547-.44,16.866,16.866,0,0,1-5.434-3.541,16.01,16.01,0,0,1-3.557-5.238A16.256,16.256,0,0,1,873.994,369.651Zm17.194-10.624a10.361,10.361,0,0,0-3.465.559,9.761,9.761,0,0,0-2.846,1.56,9.585,9.585,0,0,0-2.134,2.376,10.425,10.425,0,0,0-1.3,3.012H900.6a10.969,10.969,0,0,0-1.271-3.012,9.53,9.53,0,0,0-2.058-2.376,9.311,9.311,0,0,0-2.74-1.56A9.659,9.659,0,0,0,891.188,359.026Z" transform="translate(-700.22 -340.955)" fill="#fff"/><path d="M928.578,338.137h7.355v42.652h-7.355Z" transform="translate(-716.325 -336.533)" fill="#fff"/><path d="M944.987,365.229a17.475,17.475,0,0,1,1.18-6.432,15.9,15.9,0,0,1,3.346-5.268,15.605,15.605,0,0,1,5.221-3.556,17.139,17.139,0,0,1,6.781-1.3,14.988,14.988,0,0,1,5.964,1.119,16.189,16.189,0,0,1,4.51,2.846v-14.5h7.356v42.652h-6.3l-.453-3.632a15.384,15.384,0,0,1-2.1,1.8,14.638,14.638,0,0,1-2.558,1.453,16.3,16.3,0,0,1-2.967.985,14.783,14.783,0,0,1-3.329.362,17.238,17.238,0,0,1-6.8-1.3,15.849,15.849,0,0,1-5.252-3.541,16.014,16.014,0,0,1-3.39-5.252A17.068,17.068,0,0,1,944.987,365.229Zm7.355-.03a10.524,10.524,0,0,0,.788,4.118,9.831,9.831,0,0,0,2.148,3.224,9.678,9.678,0,0,0,3.179,2.088,10.565,10.565,0,0,0,7.781,0,9.491,9.491,0,0,0,3.162-2.088,9.974,9.974,0,0,0,2.135-3.21,10.509,10.509,0,0,0,.787-4.132,10.351,10.351,0,0,0-.787-4.071,9.693,9.693,0,0,0-2.15-3.193,10.031,10.031,0,0,0-7.083-2.845,10.244,10.244,0,0,0-3.9.741,9.532,9.532,0,0,0-3.164,2.089,9.8,9.8,0,0,0-2.119,3.209A10.536,10.536,0,0,0,952.342,365.2Z" transform="translate(-721.166 -336.533)" fill="#fff"/></g><path d="M534.615,334.859l-11.958,11.958a10.162,10.162,0,0,1,0-14.371l7.522-7.523a7.221,7.221,0,0,1,10.211,0l27.717,27.717a40.184,40.184,0,0,0,.2-4.025,39.592,39.592,0,0,0-75.65-16.368l30.124,30.124,11.958-11.958a10.163,10.163,0,0,1,0,14.371l-7.523,7.522a7.22,7.22,0,0,1-10.211,0l-27.717-27.716a40.152,40.152,0,0,0-.2,4.025,39.591,39.591,0,0,0,75.65,16.368Z" transform="translate(110.911 7388.995)" fill="#00ec85"/></g></svg>