<svg xmlns="http://www.w3.org/2000/svg" width="79.22" height="79.22" viewBox="0 0 79.22 79.22"><path d="M534.615,334.859l-11.958,11.958a10.162,10.162,0,0,1,0-14.371l7.522-7.523a7.221,7.221,0,0,1,10.211,0l27.717,27.717a40.184,40.184,0,0,0,.2-4.025,39.592,39.592,0,0,0-75.65-16.368l30.124,30.124,11.958-11.958a10.163,10.163,0,0,1,0,14.371l-7.523,7.522a7.22,7.22,0,0,1-10.211,0l-27.717-27.716a40.152,40.152,0,0,0-.2,4.025,39.591,39.591,0,0,0,75.65,16.368Z" transform="translate(-489.089 -309.005)" fill="#00ec85"/></svg>