<svg xmlns="http://www.w3.org/2000/svg" width="213.923" height="50.459" viewBox="0 0 213.923 50.459"><path d="M25.229,41.526a14.3,14.3,0,1,0-14.3-14.3A14.3,14.3,0,0,0,25.229,41.526Zm0,10.933A25.229,25.229,0,1,0,0,27.229,25.229,25.229,0,0,0,25.229,52.459Z" transform="translate(0 -2)" fill="#474747" fill-rule="evenodd"/><path d="M22.5,24.734a6.728,6.728,0,0,1,9.515,0L45.1,37.816a6.728,6.728,0,0,1-9.515,9.515L22.5,34.248A6.728,6.728,0,0,1,22.5,24.734Z" transform="translate(3.014 1.048)" fill="#999"/><path d="M25.455,37.182l8.309,8.309a25.349,25.349,0,0,0,9.587-9.442L35.11,27.808A14.329,14.329,0,0,1,25.455,37.182Z" transform="translate(3.736 1.788)" fill="#474747"/><path d="M82.812,39.335a7.155,7.155,0,0,1-2.665,2.055,8.071,8.071,0,0,1-3.4.706A9.378,9.378,0,0,1,72.216,41a19.126,19.126,0,0,1-4.624-3.789,12.758,12.758,0,0,1-5.459-1.959,11.25,11.25,0,0,1-3.725-4.046,11.687,11.687,0,0,1-1.317-5.523,11.187,11.187,0,0,1,5.972-10.115,13.214,13.214,0,0,1,6.326-1.509,13.027,13.027,0,0,1,6.294,1.509,11.308,11.308,0,0,1,4.4,4.174,11.181,11.181,0,0,1,1.606,5.94,11.138,11.138,0,0,1-2.216,6.872,11.29,11.29,0,0,1-5.812,4.11A5.533,5.533,0,0,0,75.2,37.858a3.613,3.613,0,0,0,1.638.385,4.885,4.885,0,0,0,3.661-1.67ZM62.358,25.688a7.612,7.612,0,0,0,.9,3.725,6.8,6.8,0,0,0,2.537,2.569,7.642,7.642,0,0,0,7.193,0,6.566,6.566,0,0,0,2.5-2.569,7.4,7.4,0,0,0,.931-3.725,7.4,7.4,0,0,0-.931-3.725,6.347,6.347,0,0,0-2.5-2.537,7.41,7.41,0,0,0-7.193,0,6.567,6.567,0,0,0-2.537,2.537A7.612,7.612,0,0,0,62.358,25.688Z" transform="translate(8.38 -0.229)"/><path d="M99.057,18.936V36.211H94.3V34.156a6.817,6.817,0,0,1-2.376,1.734,7.655,7.655,0,0,1-2.986.578,7.357,7.357,0,0,1-5.394-1.959q-1.991-1.959-1.991-5.812V18.936h5.009v9.023q0,4.174,3.5,4.174a3.789,3.789,0,0,0,2.89-1.156,5.006,5.006,0,0,0,1.092-3.5V18.936Z" transform="translate(11.972 0.486)"/><path d="M109.249,36.5a10.575,10.575,0,0,1-4.913-1.124,8.609,8.609,0,0,1-3.372-3.179,8.708,8.708,0,0,1-1.221-4.592,8.708,8.708,0,0,1,1.221-4.592,8.383,8.383,0,0,1,3.372-3.147,10.334,10.334,0,0,1,4.913-1.156,10.151,10.151,0,0,1,4.881,1.156,8.4,8.4,0,0,1,3.372,3.147,8.718,8.718,0,0,1,1.22,4.592A8.718,8.718,0,0,1,117.5,32.2a8.625,8.625,0,0,1-3.372,3.179A10.387,10.387,0,0,1,109.249,36.5Zm0-4.11a4.147,4.147,0,0,0,3.147-1.284,4.868,4.868,0,0,0,1.252-3.5,4.755,4.755,0,0,0-1.252-3.468,4.1,4.1,0,0,0-3.147-1.317,4.2,4.2,0,0,0-3.179,1.317,4.755,4.755,0,0,0-1.252,3.468,4.868,4.868,0,0,0,1.252,3.5A4.25,4.25,0,0,0,109.249,32.391Z" transform="translate(14.641 0.453)"/><path d="M130.616,35.866a5.347,5.347,0,0,1-1.83.835,9.514,9.514,0,0,1-2.248.257,6.787,6.787,0,0,1-4.784-1.573,6.056,6.056,0,0,1-1.67-4.624v-7.1h-2.665V19.811h2.665V15.6h5.009v4.206h4.3v3.853h-4.3V30.7a2.465,2.465,0,0,0,.546,1.7,2.171,2.171,0,0,0,1.605.578,3.218,3.218,0,0,0,2.023-.642Z" transform="translate(17.236 -0.003)"/><path d="M131.457,19.96h5.009V37.235h-5.009Zm2.5-2.408a3.178,3.178,0,0,1-2.248-.8,2.719,2.719,0,0,1,0-3.982,3.178,3.178,0,0,1,2.248-.8,3.256,3.256,0,0,1,2.248.771,2.471,2.471,0,0,1,.867,1.927,2.778,2.778,0,0,1-.867,2.087A3.176,3.176,0,0,1,133.962,17.551Z" transform="translate(19.207 -0.537)"/><path d="M156.887,27.671q0,.1-.1,1.349H143.722a4.075,4.075,0,0,0,1.67,2.537,5.534,5.534,0,0,0,3.275.931,6.744,6.744,0,0,0,2.376-.385A5.96,5.96,0,0,0,153,30.818l2.665,2.89q-2.439,2.794-7.128,2.794a11.415,11.415,0,0,1-5.17-1.124A8.472,8.472,0,0,1,139.9,32.2a8.718,8.718,0,0,1-1.22-4.592,8.841,8.841,0,0,1,1.188-4.56,8.437,8.437,0,0,1,3.307-3.179,10.209,10.209,0,0,1,9.312-.064,7.834,7.834,0,0,1,3.211,3.147A9.145,9.145,0,0,1,156.887,27.671Zm-8.959-5.17a4.315,4.315,0,0,0-2.858.963,4.1,4.1,0,0,0-1.413,2.633h8.509a4.074,4.074,0,0,0-1.413-2.6A4.18,4.18,0,0,0,147.929,22.5Z" transform="translate(20.357 0.453)"/><path d="M167.965,18.712a7.052,7.052,0,0,1,5.17,1.927,7.6,7.6,0,0,1,1.991,5.716v9.89h-5.009V27.125a4.437,4.437,0,0,0-.9-3.05,3.269,3.269,0,0,0-2.6-1.028,3.959,3.959,0,0,0-3.018,1.188,4.8,4.8,0,0,0-1.124,3.468v8.541h-5.009V18.969h4.784v2.023a6.494,6.494,0,0,1,2.473-1.67A8.418,8.418,0,0,1,167.965,18.712Z" transform="translate(23.114 0.453)"/><path d="M188.23,35.866a5.368,5.368,0,0,1-1.83.835,9.521,9.521,0,0,1-2.248.257,6.785,6.785,0,0,1-4.784-1.573,6.052,6.052,0,0,1-1.67-4.624v-7.1h-2.665V19.811H177.7V15.6h5.009v4.206h4.3v3.853h-4.3V30.7a2.46,2.46,0,0,0,.546,1.7,2.169,2.169,0,0,0,1.605.578,3.223,3.223,0,0,0,2.023-.642Z" transform="translate(25.693 -0.003)"/></svg>