<svg xmlns="http://www.w3.org/2000/svg" width="192.822" height="55.046" viewBox="0 0 192.822 55.046"><rect width="11.009" height="11.009" transform="translate(0 22.018)" fill="#474747"/><rect width="11.009" height="11.009" transform="translate(33.028 33.028) rotate(180)" fill="#474747"/><path d="M10.35,20.609,21.359,9.6V20.609L10.35,31.618Z" transform="translate(0.659 1.409)" fill="#ebebeb"/><path d="M21.359,30.209,10.35,41.218V30.209L21.359,19.2Z" transform="translate(0.659 2.818)" fill="#999"/><path d="M.75,22.018,22.768,0V11.009L11.759,22.018Z" transform="translate(-0.75)" fill="#474747"/><path d="M32.368,28.8,10.35,50.818V39.809L21.359,28.8Z" transform="translate(0.659 4.228)" fill="#474747"/><path d="M51.592,37.239a17.306,17.306,0,0,1-5.041-.739,10.491,10.491,0,0,1-3.821-1.959L44.175,31.3a11.69,11.69,0,0,0,3.372,1.8,12.728,12.728,0,0,0,4.046.674,6.876,6.876,0,0,0,3.725-.8,2.426,2.426,0,0,0,1.252-2.119,1.984,1.984,0,0,0-.706-1.573,4.564,4.564,0,0,0-1.734-1q-1.06-.353-2.89-.8a34.6,34.6,0,0,1-4.174-1.22,7.066,7.066,0,0,1-2.729-1.894,5.257,5.257,0,0,1-1.124-3.532,5.99,5.99,0,0,1,1-3.372,6.918,6.918,0,0,1,3.05-2.44,12.476,12.476,0,0,1,5.009-.9,16.132,16.132,0,0,1,4.046.514,11.185,11.185,0,0,1,3.436,1.477l-1.317,3.243a12.992,12.992,0,0,0-3.083-1.317,11.533,11.533,0,0,0-3.115-.45,6.59,6.59,0,0,0-3.693.835,2.584,2.584,0,0,0-1.188,2.216,2.025,2.025,0,0,0,.674,1.573,5.164,5.164,0,0,0,1.766.963q1.06.353,2.89.8a28.721,28.721,0,0,1,4.11,1.22,6.766,6.766,0,0,1,2.729,1.894A4.991,4.991,0,0,1,60.68,30.56a5.856,5.856,0,0,1-1.028,3.372A6.771,6.771,0,0,1,56.6,36.34,12.475,12.475,0,0,1,51.592,37.239Z" transform="translate(5.412 2.073)"/><path d="M61.725,20.026h4.014V37.173H61.725ZM63.748,17.2a2.613,2.613,0,0,1-1.83-.674,2.306,2.306,0,0,1-.739-1.734,2.206,2.206,0,0,1,.739-1.7,2.546,2.546,0,0,1,1.83-.706,2.613,2.613,0,0,1,1.83.674,2.074,2.074,0,0,1,.739,1.638,2.447,2.447,0,0,1-.739,1.8A2.476,2.476,0,0,1,63.748,17.2Z" transform="translate(8.12 1.818)"/><path d="M75.3,36.444A15.349,15.349,0,0,1,71.22,35.9a10.259,10.259,0,0,1-3.179-1.381l1.541-3.05a10.275,10.275,0,0,0,2.761,1.252,12.094,12.094,0,0,0,3.211.45q3.6,0,3.6-1.894a1.268,1.268,0,0,0-.931-1.252,15.357,15.357,0,0,0-2.922-.674,24.428,24.428,0,0,1-3.468-.739,5.49,5.49,0,0,1-2.312-1.445,4.183,4.183,0,0,1-.963-2.922,4.538,4.538,0,0,1,2.023-3.885A9.28,9.28,0,0,1,76.1,18.88a15.313,15.313,0,0,1,3.532.417,9.618,9.618,0,0,1,2.89,1.06l-1.541,3.05a9.507,9.507,0,0,0-4.913-1.284,5.405,5.405,0,0,0-2.7.546,1.549,1.549,0,0,0-.9,1.381,1.422,1.422,0,0,0,.963,1.381,17.124,17.124,0,0,0,3.05.739,23.427,23.427,0,0,1,3.372.739,5.163,5.163,0,0,1,2.248,1.413,3.9,3.9,0,0,1,.963,2.826A4.471,4.471,0,0,1,80.981,35,9.841,9.841,0,0,1,75.3,36.444Z" transform="translate(9.128 2.771)"/><path d="M100.348,19.048,92.32,37.576a8.507,8.507,0,0,1-2.729,3.917,6.472,6.472,0,0,1-3.885,1.156,7.973,7.973,0,0,1-2.537-.417,5.6,5.6,0,0,1-2.055-1.156l1.605-2.954a4.416,4.416,0,0,0,1.349.867,4.294,4.294,0,0,0,1.606.321,2.668,2.668,0,0,0,1.734-.546,4.723,4.723,0,0,0,1.284-1.83l.289-.674L81.5,19.048h4.174l5.394,12.683,5.427-12.683Z" transform="translate(11.046 2.796)"/><path d="M109.578,18.88a9.01,9.01,0,0,1,4.463,1.092,7.837,7.837,0,0,1,3.115,3.083,9.172,9.172,0,0,1,1.124,4.592,9.352,9.352,0,0,1-1.124,4.624,7.836,7.836,0,0,1-3.115,3.083,9.009,9.009,0,0,1-4.463,1.092,6.922,6.922,0,0,1-5.491-2.312v8.317h-4.014V19.073h3.821V21.32a6.238,6.238,0,0,1,2.44-1.83A8.42,8.42,0,0,1,109.578,18.88Zm-.45,14.128a4.8,4.8,0,0,0,3.628-1.477,5.318,5.318,0,0,0,1.445-3.885,5.318,5.318,0,0,0-1.445-3.885,4.8,4.8,0,0,0-3.628-1.477,5.066,5.066,0,0,0-2.6.674,4.647,4.647,0,0,0-1.83,1.862,6.258,6.258,0,0,0,0,5.651,4.871,4.871,0,0,0,1.83,1.894A5.263,5.263,0,0,0,109.128,33.008Z" transform="translate(13.829 2.771)"/><path d="M129,19.71a7.167,7.167,0,0,1,5.2,1.894,7.476,7.476,0,0,1,1.959,5.619V37.05h-4.014V27.738a4.753,4.753,0,0,0-1.06-3.372,3.89,3.89,0,0,0-3.018-1.156,4.6,4.6,0,0,0-3.5,1.349,5.252,5.252,0,0,0-1.284,3.821v8.67h-4.014V13.224h4.014v8.67a6.387,6.387,0,0,1,2.44-1.606A8.912,8.912,0,0,1,129,19.71Z" transform="translate(16.647 1.941)"/><path d="M155.054,19.048V36.195h-3.821V34.011a6.54,6.54,0,0,1-2.408,1.8,7.927,7.927,0,0,1-3.115.61,7.546,7.546,0,0,1-5.427-1.894,7.629,7.629,0,0,1-1.959-5.683V19.048h4.014V28.3a5.08,5.08,0,0,0,1.028,3.468,3.905,3.905,0,0,0,2.986,1.124,4.475,4.475,0,0,0,3.4-1.317,5.374,5.374,0,0,0,1.284-3.853v-8.67Z" transform="translate(19.444 2.796)"/><path d="M163.044,36.444a15.349,15.349,0,0,1-4.078-.546,10.266,10.266,0,0,1-3.179-1.381l1.541-3.05a10.28,10.28,0,0,0,2.761,1.252,12.092,12.092,0,0,0,3.211.45q3.6,0,3.6-1.894a1.268,1.268,0,0,0-.931-1.252,15.363,15.363,0,0,0-2.922-.674,24.428,24.428,0,0,1-3.468-.739,5.494,5.494,0,0,1-2.312-1.445,4.183,4.183,0,0,1-.963-2.922,4.538,4.538,0,0,1,2.023-3.885,9.281,9.281,0,0,1,5.523-1.477,15.313,15.313,0,0,1,3.532.417,9.611,9.611,0,0,1,2.89,1.06l-1.541,3.05a9.506,9.506,0,0,0-4.913-1.284,5.4,5.4,0,0,0-2.7.546,1.548,1.548,0,0,0-.9,1.381,1.422,1.422,0,0,0,.963,1.381,17.124,17.124,0,0,0,3.05.739,23.406,23.406,0,0,1,3.372.739,5.163,5.163,0,0,1,2.248,1.413,3.9,3.9,0,0,1,.963,2.826A4.472,4.472,0,0,1,168.727,35,9.84,9.84,0,0,1,163.044,36.444Z" transform="translate(22.008 2.771)"/></svg>