<svg xmlns="http://www.w3.org/2000/svg" width="183.025" height="50.459" viewBox="0 0 183.025 50.459"><path d="M25.479,2A25.229,25.229,0,1,0,50.36,31.434h-.181a16.82,16.82,0,1,1,0-8.41h.181A25.236,25.236,0,0,0,25.479,2Z" transform="translate(-0.25 -2)" fill="#999"/><path d="M.25,27.229a25.232,25.232,0,0,1,50.11-4.2h-17A16.822,16.822,0,0,0,.25,27.229Z" transform="translate(-0.25 -2)" fill="#474747"/><path d="M.25,24a25.232,25.232,0,0,0,50.11,4.2h-17A16.822,16.822,0,0,1,.25,24Z" transform="translate(-0.25 1.229)" fill="#474747"/><path d="M78.323,21.557c-.718-5.188-4.709-8.2-9.886-8.2-6.1,0-10.7,4.447-10.7,12s4.538,12,10.7,12c5.553,0,9.236-3.592,9.886-8.05l-4.265-.023a5.294,5.294,0,0,1-5.564,4.276c-3.786,0-6.5-2.839-6.5-8.2,0-5.268,2.691-8.2,6.511-8.2a5.271,5.271,0,0,1,5.553,4.4Z" transform="translate(8.189 -0.333)"/><path d="M84.053,36.624a5.41,5.41,0,0,0,5.143-2.76h.137v2.406H93.3V24.549c0-4.63-3.774-6.021-7.115-6.021-3.683,0-6.511,1.642-7.423,4.835l3.854.547a3.5,3.5,0,0,1,3.592-2.224c1.916,0,2.965.981,2.965,2.7v.068c0,1.186-1.243,1.243-4.333,1.574-3.4.365-6.648,1.38-6.648,5.325C78.192,34.8,80.712,36.624,84.053,36.624Zm1.072-3.033c-1.722,0-2.953-.787-2.953-2.3,0-1.585,1.38-2.246,3.227-2.509,1.083-.148,3.25-.422,3.786-.855v2.064C89.184,31.938,87.611,33.591,85.125,33.591Z" transform="translate(11.191 0.426)"/><path d="M103.9,19.264h-3.455v-4.2H96.318v4.2H93.833v3.193h2.486V32.2c-.023,3.3,2.372,4.915,5.473,4.823a8.3,8.3,0,0,0,2.429-.411l-.7-3.227a5.135,5.135,0,0,1-1.209.16c-1.037,0-1.869-.365-1.869-2.03V22.457H103.9Z" transform="translate(13.487 -0.082)"/><path d="M110.768,36.624a5.409,5.409,0,0,0,5.142-2.76h.136v2.406h3.969V24.549c0-4.63-3.775-6.021-7.116-6.021-3.683,0-6.51,1.642-7.423,4.835l3.854.547a3.5,3.5,0,0,1,3.592-2.224c1.915,0,2.964.981,2.964,2.7v.068c0,1.186-1.243,1.243-4.333,1.574-3.4.365-6.648,1.38-6.648,5.325C104.907,34.8,107.426,36.624,110.768,36.624Zm1.071-3.033c-1.721,0-2.953-.787-2.953-2.3,0-1.585,1.38-2.246,3.227-2.509,1.084-.148,3.25-.422,3.786-.855v2.064C115.9,31.938,114.326,33.591,111.839,33.591Z" transform="translate(15.112 0.426)"/><path d="M125.828,13.636H121.7V36.989h4.127Z" transform="translate(17.578 -0.292)"/><path d="M136.738,36.613c5.131,0,8.392-3.615,8.392-9.031s-3.261-9.054-8.392-9.054-8.393,3.626-8.393,9.054S131.606,36.613,136.738,36.613Zm.023-3.307c-2.839,0-4.23-2.531-4.23-5.736s1.391-5.77,4.23-5.77c2.794,0,4.185,2.566,4.185,5.77S139.555,33.306,136.761,33.306Z" transform="translate(18.553 0.426)"/><path d="M153.746,43.2c4.732,0,8.221-2.167,8.221-6.648v-17.8H157.9v2.9h-.228a5.23,5.23,0,0,0-5.029-3.124c-4.047,0-7.229,3.17-7.229,8.928,0,5.713,3.182,8.563,7.218,8.563a5.2,5.2,0,0,0,5.04-2.9h.205v3.318c0,2.577-1.71,3.637-4.058,3.637-2.486,0-3.581-1.175-4.083-2.2l-3.718.9C146.768,41.231,149.287,43.2,153.746,43.2Zm.034-10.422c-2.726,0-4.163-2.121-4.163-5.348,0-3.181,1.414-5.519,4.163-5.519,2.657,0,4.116,2.2,4.116,5.519C157.9,30.775,156.415,32.782,153.78,32.782Z" transform="translate(21.058 0.426)"/></svg>