<svg xmlns="http://www.w3.org/2000/svg" width="209.714" height="50.459" viewBox="0 0 209.714 50.459"><path d="M16.676,36.2A18.037,18.037,0,0,0,34.395,14.873,18.037,18.037,0,0,0,13.373,35.895,18.121,18.121,0,0,0,16.676,36.2Z" transform="translate(1.345 -0.155)" fill="#474747"/><path d="M15.219,37.74A18.023,18.023,0,1,1,36.24,16.719,18.037,18.037,0,0,0,15.219,37.74Z" transform="translate(-0.5 -2)" fill="#474747" fill-rule="evenodd"/><path d="M16.637,36.158A18.037,18.037,0,0,0,34.356,14.835,18.023,18.023,0,1,1,13.335,35.856,18.131,18.131,0,0,0,16.637,36.158Z" transform="translate(1.384 -0.116)" fill="#999" fill-rule="evenodd"/><path d="M77.186,30.91a8.145,8.145,0,0,1-3.372,4.656A10.359,10.359,0,0,1,68.2,37.075a10.847,10.847,0,0,1-5.459-1.317A8.944,8.944,0,0,1,59.2,32a12.941,12.941,0,0,1-1.22-5.844,12.661,12.661,0,0,1,1.252-5.844,8.946,8.946,0,0,1,3.532-3.757,11.723,11.723,0,0,1,10.917.064,6.94,6.94,0,0,1,3.211,4.11l-4.014,1.7a4.829,4.829,0,0,0-1.67-2.729,4.72,4.72,0,0,0-2.89-.835,5.19,5.19,0,0,0-4.206,1.894,8.267,8.267,0,0,0-1.541,5.394,8.606,8.606,0,0,0,1.477,5.394,5.091,5.091,0,0,0,4.271,1.894,4.864,4.864,0,0,0,2.986-.931,4.934,4.934,0,0,0,1.8-2.826Z" transform="translate(7.938 -0.057)"/><path d="M79.911,18.588q-2.729,0-2.729-2.344,0-2.376,2.729-2.376t2.729,2.376Q82.64,18.588,79.911,18.588ZM82.094,20.9V36.955H77.7V20.9Z" transform="translate(10.756 -0.258)"/><path d="M85.532,36.1V20.041h3.821l.289,3.147a5.387,5.387,0,0,1,1.83-2.537,5.129,5.129,0,0,1,3.147-.931,3.5,3.5,0,0,1,1.734.353l-.514,3.693a5.291,5.291,0,0,0-.8-.161,5.884,5.884,0,0,0-1.188-.1,3.956,3.956,0,0,0-1.894.482A3.653,3.653,0,0,0,90.509,25.4a4.44,4.44,0,0,0-.578,2.376V36.1Z" transform="translate(11.982 0.601)"/><path d="M104.475,19.72a7.915,7.915,0,0,1,4.977,1.381,6.482,6.482,0,0,1,2.376,3.339l-4.11,1.477Q107.075,23,104.539,23a3.455,3.455,0,0,0-2.858,1.284,6.168,6.168,0,0,0-1,3.821,5.94,5.94,0,0,0,1.028,3.821,3.591,3.591,0,0,0,2.858,1.22,3.113,3.113,0,0,0,3.339-2.858l3.982,1.284a6.015,6.015,0,0,1-2.44,3.5,8.075,8.075,0,0,1-4.849,1.349,9.323,9.323,0,0,1-4.4-1,7.012,7.012,0,0,1-2.89-2.858,9.18,9.18,0,0,1-1.028-4.5,9.18,9.18,0,0,1,1.028-4.5,7.275,7.275,0,0,1,2.89-2.858A8.92,8.92,0,0,1,104.475,19.72Z" transform="translate(13.56 0.601)"/><path d="M120.311,19.72a8.919,8.919,0,0,1,4.271,1,7.009,7.009,0,0,1,2.89,2.858,8.954,8.954,0,0,1,1.06,4.5,8.953,8.953,0,0,1-1.06,4.5,7.008,7.008,0,0,1-2.89,2.858,9.728,9.728,0,0,1-8.573,0,7.274,7.274,0,0,1-2.89-2.858,9.184,9.184,0,0,1-1.028-4.5,9.184,9.184,0,0,1,1.028-4.5,7.275,7.275,0,0,1,2.89-2.858A8.994,8.994,0,0,1,120.311,19.72Zm0,3.275a3.422,3.422,0,0,0-2.826,1.284,6.029,6.029,0,0,0-1,3.789,6.175,6.175,0,0,0,1,3.821,3.459,3.459,0,0,0,2.826,1.252,3.33,3.33,0,0,0,2.761-1.252,6.022,6.022,0,0,0,1.028-3.821,5.881,5.881,0,0,0-1.028-3.789A3.3,3.3,0,0,0,120.311,23Z" transform="translate(15.88 0.601)"/><path d="M137.073,19.72a8.919,8.919,0,0,1,4.271,1,7.009,7.009,0,0,1,2.89,2.858,8.954,8.954,0,0,1,1.06,4.5,8.953,8.953,0,0,1-1.06,4.5,7.008,7.008,0,0,1-2.89,2.858,9.728,9.728,0,0,1-8.573,0,7.274,7.274,0,0,1-2.89-2.858,9.184,9.184,0,0,1-1.028-4.5,9.184,9.184,0,0,1,1.028-4.5,7.276,7.276,0,0,1,2.89-2.858A8.994,8.994,0,0,1,137.073,19.72Zm0,3.275a3.423,3.423,0,0,0-2.826,1.284,6.029,6.029,0,0,0-1,3.789,6.175,6.175,0,0,0,1,3.821,3.459,3.459,0,0,0,2.826,1.252,3.329,3.329,0,0,0,2.761-1.252,6.022,6.022,0,0,0,1.027-3.821,5.881,5.881,0,0,0-1.027-3.789A3.3,3.3,0,0,0,137.073,23Z" transform="translate(18.341 0.601)"/><path d="M150.742,13.868V32.01a2.451,2.451,0,0,0,.385,1.573,1.611,1.611,0,0,0,1.284.45,5.168,5.168,0,0,0,.9-.064,6.114,6.114,0,0,0,.9-.257l-.385,2.89a4.337,4.337,0,0,1-1.381.482,6.858,6.858,0,0,1-1.605.193,4.609,4.609,0,0,1-3.436-1.124,5.3,5.3,0,0,1-1.06-3.661V13.868Z" transform="translate(20.908 -0.258)"/><path d="M162.9,36.417a8.409,8.409,0,0,1-6.069-2.183,8.2,8.2,0,0,1-2.28-6.165,9.184,9.184,0,0,1,1.028-4.5,7.07,7.07,0,0,1,2.858-2.858,8.854,8.854,0,0,1,4.239-1,8.073,8.073,0,0,1,4.142,1,6.486,6.486,0,0,1,2.6,2.665,7.929,7.929,0,0,1,.9,3.821q0,.642-.032,1.22t-.1,1.028H158.859a4.452,4.452,0,0,0,1.284,2.794,4.074,4.074,0,0,0,2.729.9,4.226,4.226,0,0,0,2.28-.546,3.692,3.692,0,0,0,1.349-1.509l3.5,1.349a5.823,5.823,0,0,1-2.7,2.954A9.2,9.2,0,0,1,162.9,36.417Zm-.257-13.454q-3.114,0-3.757,3.436h7.225a4.04,4.04,0,0,0-1.092-2.537A3.145,3.145,0,0,0,162.648,22.963Z" transform="translate(22.114 0.601)"/><path d="M178.141,36.417a11.214,11.214,0,0,1-4.463-.867,8.292,8.292,0,0,1-3.243-2.44l2.537-2.569a5.913,5.913,0,0,0,5.105,2.633,4.669,4.669,0,0,0,1.991-.353,1.256,1.256,0,0,0,.771-1.188,1.176,1.176,0,0,0-.353-.867,2.726,2.726,0,0,0-1.413-.61l-2.826-.578a8.043,8.043,0,0,1-3.982-1.734,4.192,4.192,0,0,1-1.156-3.05,4.377,4.377,0,0,1,.771-2.472,5.584,5.584,0,0,1,2.376-1.862,9.2,9.2,0,0,1,3.917-.739q4.88,0,7,2.986l-2.633,2.569a4.6,4.6,0,0,0-1.862-1.7,4.909,4.909,0,0,0-2.376-.61q-2.826,0-2.826,1.573a1.156,1.156,0,0,0,.45.9,4.27,4.27,0,0,0,1.638.61l3.275.674a6.047,6.047,0,0,1,3.4,1.638,3.9,3.9,0,0,1,1.028,2.729,4.711,4.711,0,0,1-1.862,3.821A8.084,8.084,0,0,1,178.141,36.417Z" transform="translate(24.444 0.601)"/></svg>