<svg xmlns="http://www.w3.org/2000/svg" width="166.359" height="49.805" viewBox="0 0 166.359 49.805"><path d="M14.059,24.134a12.627,12.627,0,0,1,8.079-8.078l21.937-5.879c3.519-.943,5.607,1.145,4.664,4.664L42.859,36.777a12.628,12.628,0,0,1-8.078,8.079L12.844,50.734c-3.519.943-5.607-1.145-4.664-4.664Z" transform="translate(0.841 -1.155)" fill="#999"/><path d="M6.39,16.465a12.627,12.627,0,0,1,8.079-8.078L36.406,2.508c3.519-.943,5.607,1.145,4.664,4.664L35.19,29.108a12.627,12.627,0,0,1-8.078,8.078L5.175,43.065C1.656,44.008-.432,41.92.511,38.4Z" transform="translate(-0.285 -2.281)" fill="#474747"/><path d="M61.761,33.9h7.546v2.954H58.1V14.54h3.661Z" transform="translate(8.202 -0.482)"/><path d="M69.478,27.375a9.908,9.908,0,0,1,1.092-4.72,8.152,8.152,0,0,1,7.257-4.335,7.507,7.507,0,0,1,3.628.835,7.2,7.2,0,0,1,2.5,2.023V18.609h3.693V36.3H83.959V33.669a7.269,7.269,0,0,1-2.537,2.087,8.263,8.263,0,0,1-7.835-.321,8.578,8.578,0,0,1-3.018-3.275A10.293,10.293,0,0,1,69.478,27.375Zm14.482.064a6.3,6.3,0,0,0-.771-3.179,5.251,5.251,0,0,0-9.216-.032,6.335,6.335,0,0,0-.739,3.147,6.707,6.707,0,0,0,.739,3.211,5.6,5.6,0,0,0,1.991,2.119,5.281,5.281,0,0,0,2.633.706,5.148,5.148,0,0,0,4.592-2.761A6.48,6.48,0,0,0,83.959,27.439Z" transform="translate(9.872 0.073)"/><path d="M105.712,18.572,94.859,44.581H91.07l3.6-8.605L87.7,18.572h4.078l4.977,13.486,5.17-13.486Z" transform="translate(12.546 0.11)"/><path d="M122.187,27.022a11.4,11.4,0,0,1-.128,1.8H108.54a4.909,4.909,0,0,0,1.573,3.4,4.965,4.965,0,0,0,3.468,1.284,4.283,4.283,0,0,0,4.174-2.472h3.95a8.025,8.025,0,0,1-2.922,4.014,8.516,8.516,0,0,1-5.2,1.541,9.226,9.226,0,0,1-4.56-1.124,8.4,8.4,0,0,1-3.147-3.211,10.007,10.007,0,0,1-1.124-4.817,10.046,10.046,0,0,1,1.092-4.784,7.9,7.9,0,0,1,3.115-3.211,9.361,9.361,0,0,1,4.624-1.124,9.013,9.013,0,0,1,4.463,1.092,7.688,7.688,0,0,1,3.05,3.083A9.14,9.14,0,0,1,122.187,27.022Zm-3.821-1.156a4.168,4.168,0,0,0-1.445-3.243,5.166,5.166,0,0,0-3.5-1.22,4.666,4.666,0,0,0-3.243,1.22,4.965,4.965,0,0,0-1.606,3.243Z" transform="translate(15.049 0.073)"/><path d="M126.757,21.178a5.668,5.668,0,0,1,2.119-2.087,6.3,6.3,0,0,1,3.179-.771v3.789h-.931a4.519,4.519,0,0,0-3.275,1.092,5.276,5.276,0,0,0-1.092,3.789V36.3H123.1V18.609h3.661Z" transform="translate(17.742 0.073)"/><path d="M140.387,36.591a9.2,9.2,0,0,1-3.757-.739,6.786,6.786,0,0,1-2.6-2.055A5.2,5.2,0,0,1,133,30.875h3.789a2.65,2.65,0,0,0,1.06,1.894,4.036,4.036,0,0,0,2.472.739,4.145,4.145,0,0,0,2.376-.578,1.824,1.824,0,0,0,.867-1.541,1.565,1.565,0,0,0-.963-1.477,17.1,17.1,0,0,0-2.986-1.06,28.988,28.988,0,0,1-3.243-1.06,5.827,5.827,0,0,1-2.184-1.573,4.175,4.175,0,0,1-.9-2.794,4.289,4.289,0,0,1,.835-2.569,5.526,5.526,0,0,1,2.376-1.862,9.056,9.056,0,0,1,3.6-.674,7.277,7.277,0,0,1,4.849,1.541A5.4,5.4,0,0,1,146.938,24h-3.661a2.607,2.607,0,0,0-.963-1.894,3.6,3.6,0,0,0-2.344-.706,3.805,3.805,0,0,0-2.216.546,1.69,1.69,0,0,0-.771,1.445,1.567,1.567,0,0,0,.514,1.188,3.875,3.875,0,0,0,1.252.771q.74.257,2.183.674a21.358,21.358,0,0,1,3.147,1.06,5.691,5.691,0,0,1,2.151,1.541,4.115,4.115,0,0,1,.931,2.729,4.572,4.572,0,0,1-.835,2.7,5.519,5.519,0,0,1-2.376,1.862A8.677,8.677,0,0,1,140.387,36.591Z" transform="translate(19.196 0.073)"/></svg>